<svg id="Layer_1" data-name="Layer 1" xmlns="http://www.w3.org/2000/svg" viewBox="0 0 398.39 298.51"><defs><style>.cls-1{fill:#39b44a;}.cls-2{fill:#fff;}.cls-3{fill:#221f1f;}.cls-4{fill:#231f20;}</style></defs><polygon class="cls-1" points="69.89 5.64 309.75 5.64 309.75 230.88 69.89 230.88 69.89 5.64 69.89 5.64"/><path class="cls-2" d="M218.82,182.66h-64.5a25.57,25.57,0,0,1-25.57-25.57V92.58A25.56,25.56,0,0,1,154.32,67h64.5a25.56,25.56,0,0,1,25.57,25.56v64.51a25.57,25.57,0,0,1-25.57,25.57Z"/><path class="cls-3" d="M154.32,70.11a22.5,22.5,0,0,0-22.48,22.47v64.51a22.5,22.5,0,0,0,22.48,22.47h64.5a22.5,22.5,0,0,0,22.48-22.47V92.58a22.5,22.5,0,0,0-22.48-22.47Zm64.5,115.65h-64.5a28.7,28.7,0,0,1-28.67-28.67V92.58a28.7,28.7,0,0,1,28.67-28.66h64.5a28.7,28.7,0,0,1,28.67,28.66v64.51a28.7,28.7,0,0,1-28.67,28.67Z"/><path class="cls-1" d="M164,137.64S167,89,218.19,77.24C225.61,111,164,137.64,164,137.64Z"/><path class="cls-3" d="M215.64,81.08a67.22,67.22,0,0,0-25.52,13,63,63,0,0,0-15.49,19.26,72.52,72.52,0,0,0-6.76,19c13.66-6.84,49.68-27.24,47.77-51.27ZM164,140.74a3.11,3.11,0,0,1-1.78-.57,3.07,3.07,0,0,1-1.31-2.73,73.53,73.53,0,0,1,8.28-27,69.19,69.19,0,0,1,17-21.15,74.72,74.72,0,0,1,31.33-15,3.09,3.09,0,0,1,3.72,2.35c1.88,8.55-.06,17.31-5.77,26-4.39,6.72-11,13.43-19.73,20a167.09,167.09,0,0,1-30.52,17.9,3.16,3.16,0,0,1-1.23.26Z"/><path class="cls-3" d="M155.58,163.55a3.22,3.22,0,0,1-.81-.11,3.08,3.08,0,0,1-2.17-3.8c6.69-24.57,17.92-41.07,26.17-50.59,9-10.41,16.47-14.94,16.78-15.14a3.1,3.1,0,0,1,3.2,5.31c-.11.07-7.1,4.38-15.49,14.12-7.76,9-18.34,24.62-24.69,47.92a3.1,3.1,0,0,1-3,2.29Z"/><path class="cls-3" d="M176.37,173.21H155.58a3.1,3.1,0,0,1,0-6.2h20.79a3.1,3.1,0,0,1,0,6.2Z"/><path class="cls-3" d="M44.76,11.28A33.53,33.53,0,0,0,11.27,44.76v147a33.54,33.54,0,0,0,33.49,33.49h265a33.53,33.53,0,0,0,33.48-33.49v-147a33.52,33.52,0,0,0-33.48-33.48Zm265,225.24h-265A44.81,44.81,0,0,1,0,191.76v-147A44.81,44.81,0,0,1,44.76,0h265a44.81,44.81,0,0,1,44.76,44.76v147a44.81,44.81,0,0,1-44.76,44.76Z"/><path class="cls-3" d="M75.53,225.25H304.12v-214H75.53v214Zm234.23,11.27H69.89a5.64,5.64,0,0,1-5.64-5.64V5.64A5.65,5.65,0,0,1,69.89,0H309.76a5.64,5.64,0,0,1,5.63,5.64V230.88a5.63,5.63,0,0,1-5.63,5.64Z"/><path class="cls-3" d="M39.46,143.87a5.63,5.63,0,0,1-5.64-5.64V98.28a5.64,5.64,0,0,1,11.27,0v39.95a5.63,5.63,0,0,1-5.63,5.64Z"/><path class="cls-2" d="M289.94,273.22l-30.89-30.9a30.21,30.21,0,0,1-8.35-15.84l-2.55-13.64a15.5,15.5,0,0,0-4.25-8.07l-38.53-38.52a16.41,16.41,0,0,1,0-23.21h0a16.41,16.41,0,0,1,23.21,0h0c1.09,1.09,22.26,20.5,23.36,19.4l8.88-8.88a15.37,15.37,0,0,1,21.73,0l2,2,5.72-5.72a16.05,16.05,0,0,1,22.72,0h0a15.08,15.08,0,0,1,21.34,0l39.81,39.81A53.7,53.7,0,0,1,386,207.54l6.81,16.79a14.62,14.62,0,0,1-3.21,15.82L341.16,288.6a14.61,14.61,0,0,1-15.58,3.3l-16.9-6.5a54,54,0,0,1-18.74-12.18Z"/><path class="cls-4" d="M217,143.87a10.78,10.78,0,0,0-7.63,18.39l38.54,38.53a21,21,0,0,1,5.8,11l2.54,13.63a24.7,24.7,0,0,0,6.8,12.91l30.89,30.88a48,48,0,0,0,16.79,10.91l16.89,6.51a9,9,0,0,0,9.58-2l48.44-48.44a9,9,0,0,0,2-9.72l-6.81-16.8a47.8,47.8,0,0,0-10.6-16l-39.81-39.81a9.44,9.44,0,0,0-13.37,0,5.64,5.64,0,0,1-8,0,10.44,10.44,0,0,0-14.75,0l-5.73,5.72a5.64,5.64,0,0,1-8,0l-2-2a9.71,9.71,0,0,0-13.76,0l-8.88,8.87c-1,1-3.84,3.08-8.24.33a38,38,0,0,1-3.17-2.28c-2-1.57-4.68-3.81-7.95-6.66-5.56-4.85-11.24-10.07-12-10.78a10.67,10.67,0,0,0-7.61-3.16ZM330.82,298.51a20.16,20.16,0,0,1-7.27-1.34l-16.9-6.51A59.18,59.18,0,0,1,286,277.2l-30.9-30.89a35.71,35.71,0,0,1-9.9-18.79l-2.55-13.65a9.79,9.79,0,0,0-2.7-5.11l-38.52-38.52a22,22,0,0,1,31.17-31.18c1.73,1.69,12.93,11.81,18.53,16.26l5.75-5.75a21,21,0,0,1,27.61-1.82l1.87-1.87a21.76,21.76,0,0,1,26.73-3.13,20.73,20.73,0,0,1,25.3,3.13l39.81,39.81a59.41,59.41,0,0,1,13.08,19.73l6.8,16.79a20.21,20.21,0,0,1-4.44,21.93l-48.45,48.45a20.28,20.28,0,0,1-14.33,5.92Z"/></svg>