<svg id="Layer_1" data-name="Layer 1" xmlns="http://www.w3.org/2000/svg" viewBox="0 0 512 512"><defs><style>.cls-1{fill:#39b44a;}.cls-2{fill:#221f1f;}.cls-3{fill:#fff;}</style></defs><polygon class="cls-1" points="371.18 336.59 115 336.59 115 140.98 371.18 140.98 371.18 336.59 371.18 336.59"/><path class="cls-2" d="M119.15,332.44H367V145.13H119.15V332.44Zm252,8.3H115a4.15,4.15,0,0,1-4.15-4.15V141a4.15,4.15,0,0,1,4.15-4.16H371.18a4.15,4.15,0,0,1,4.15,4.16V336.59a4.15,4.15,0,0,1-4.15,4.15Z"/><polygon class="cls-1" points="371.18 180.44 114.99 180.44 114.99 136.72 371.18 136.72 371.18 180.44 371.18 180.44"/><path class="cls-2" d="M119.15,180.55H367V145.13H119.15v35.42Zm252,8.3H115a4.15,4.15,0,0,1-4.15-4.15V141a4.15,4.15,0,0,1,4.15-4.16H371.18a4.15,4.15,0,0,1,4.15,4.16V184.7a4.15,4.15,0,0,1-4.15,4.15Z"/><polygon class="cls-3" points="210.69 214.43 287.03 258.5 210.69 302.57 210.69 214.43 210.69 214.43"/><path class="cls-2" d="M214.85,221.62v73.76l63.88-36.88-63.88-36.88Zm-4.16,85.1a4.14,4.14,0,0,1-4.15-4.15V214.43a4.16,4.16,0,0,1,6.23-3.6l76.34,44.07a4.17,4.17,0,0,1,0,7.2l-76.34,44.07a4.15,4.15,0,0,1-2.08.55Z"/><path class="cls-2" d="M148.2,162.83a6.22,6.22,0,1,1-6.22-6.21,6.22,6.22,0,0,1,6.22,6.21Z"/><path class="cls-2" d="M168.34,162.83a6.22,6.22,0,1,1-6.22-6.21,6.22,6.22,0,0,1,6.22,6.21Z"/><path class="cls-2" d="M188.47,162.83a6.22,6.22,0,1,1-6.21-6.21,6.21,6.21,0,0,1,6.21,6.21Z"/><path class="cls-3" d="M355.52,288.42l8.35,25.72a3.13,3.13,0,0,0,3,2.16h27a3.12,3.12,0,0,1,1.83,5.64l-21.87,15.9a3.1,3.1,0,0,0-1.14,3.48L381.06,367a3.12,3.12,0,0,1-4.8,3.49l-21.88-15.89a3.09,3.09,0,0,0-3.66,0l-21.88,15.89A3.12,3.12,0,0,1,324,367l8.36-25.72a3.11,3.11,0,0,0-1.14-3.48l-21.88-15.9a3.12,3.12,0,0,1,1.84-5.64h27a3.13,3.13,0,0,0,3-2.16l8.35-25.72a3.13,3.13,0,0,1,5.94,0Z"/><path class="cls-2" d="M314.4,320.45l19.3,14a7.26,7.26,0,0,1,2.65,8.13L329,365.3l19.31-14a7.2,7.2,0,0,1,8.54,0l19.31,14-7.37-22.69a7.25,7.25,0,0,1,2.63-8.13l19.31-14H366.84a7.24,7.24,0,0,1-6.91-5l-7.38-22.7-7.37,22.7a7.26,7.26,0,0,1-6.92,5ZM327,375.28a7.27,7.27,0,0,1-6.92-9.52l8.13-25L307,325.3a7.26,7.26,0,0,1,4.27-13.15h26.29l8.12-25a7.27,7.27,0,0,1,13.83,0h0l8.13,25h26.29a7.26,7.26,0,0,1,4.27,13.15l-21.26,15.46,8.12,25a7.27,7.27,0,0,1-11.19,8.13l-21.27-15.45-21.27,15.45a7.23,7.23,0,0,1-4.27,1.39Z"/></svg>