<svg id="Layer_1" data-name="Layer 1" xmlns="http://www.w3.org/2000/svg" viewBox="0 0 207.74 311.21"><defs><style>.cls-1{fill:#221f1f;}.cls-2,.cls-5{fill:#39b44a;}.cls-3,.cls-4{fill:#fff;}.cls-4,.cls-5{fill-rule:evenodd;}</style></defs><path class="cls-1" d="M39.42,10.24A29.22,29.22,0,0,0,10.23,39.43V271.8A29.22,29.22,0,0,0,39.42,301h128.9a29.22,29.22,0,0,0,29.19-29.18V39.43a29.22,29.22,0,0,0-29.19-29.19Zm128.9,301H39.42A39.46,39.46,0,0,1,0,271.8V39.43A39.47,39.47,0,0,1,39.42,0h128.9a39.47,39.47,0,0,1,39.42,39.43V271.8a39.46,39.46,0,0,1-39.42,39.41Z"/><polygon class="cls-2" points="5.12 260.77 5.12 50.44 202.63 50.44 202.63 260.77 5.12 260.77 5.12 260.77"/><path class="cls-1" d="M10.23,255.65H197.51V55.56H10.23V255.65Zm192.4,10.24H5.12A5.12,5.12,0,0,1,0,260.77V50.44a5.12,5.12,0,0,1,5.12-5.12H202.63a5.11,5.11,0,0,1,5.11,5.12V260.77a5.11,5.11,0,0,1-5.11,5.12Z"/><path class="cls-3" d="M139.09,211.37a1,1,0,0,0-.16-.6.82.82,0,0,0-.53-.35,1,1,0,0,0-.25,0h-1.07v2h.76a1.82,1.82,0,0,0,.55-.08,1,1,0,0,0,.39-.21.82.82,0,0,0,.24-.32,1.18,1.18,0,0,0,.07-.43ZM141,216.3a.2.2,0,0,1,0,.11.21.21,0,0,1-.1.07,1.18,1.18,0,0,1-.25,0h-.82a.55.55,0,0,1-.22-.05.23.23,0,0,1-.11-.07.34.34,0,0,1-.06-.12l-.66-1.62c-.08-.19-.15-.35-.23-.5a1.64,1.64,0,0,0-.25-.36,1,1,0,0,0-.32-.21,1.07,1.07,0,0,0-.41-.08h-.47v2.78a.17.17,0,0,1,0,.1l-.12.08-.23,0-.35,0-.36,0-.22,0-.12-.07a.23.23,0,0,1,0-.11v-6.6a.4.4,0,0,1,.43-.46h2.35l.34,0a3.16,3.16,0,0,1,.79.22,1.9,1.9,0,0,1,.59.39,1.6,1.6,0,0,1,.37.58,2,2,0,0,1,.13.77,2.29,2.29,0,0,1-.09.66,1.71,1.71,0,0,1-.27.54,2,2,0,0,1-.45.41,2.93,2.93,0,0,1-.59.28,1.17,1.17,0,0,1,.3.19,1.15,1.15,0,0,1,.27.27,2.62,2.62,0,0,1,.24.37,3.3,3.3,0,0,1,.22.46l.62,1.44c0,.14.09.24.11.31a1.25,1.25,0,0,1,0,.15Zm-7.4-2.51a3.2,3.2,0,0,1-.2,1.19,2.24,2.24,0,0,1-.57.89,2.53,2.53,0,0,1-.94.56,4.29,4.29,0,0,1-1.3.19,4.18,4.18,0,0,1-1.22-.17,2.51,2.51,0,0,1-.92-.52,2.22,2.22,0,0,1-.58-.87,3.41,3.41,0,0,1-.2-1.21v-4.43a.12.12,0,0,1,0-.09.23.23,0,0,1,.12-.08l.22,0,.36,0,.35,0,.22,0a.32.32,0,0,1,.13.08.16.16,0,0,1,0,.09v4.3a2.37,2.37,0,0,0,.11.75,1.33,1.33,0,0,0,.31.53,1.21,1.21,0,0,0,.48.31,1.72,1.72,0,0,0,.62.1,1.56,1.56,0,0,0,.62-.11,1.21,1.21,0,0,0,.46-.31,1.39,1.39,0,0,0,.3-.5,2.09,2.09,0,0,0,.1-.69v-4.38a.18.18,0,0,1,0-.09s.06-.06.12-.08l.22,0,.36,0,.35,0,.22,0a.23.23,0,0,1,.12.08.16.16,0,0,1,0,.09v4.37Zm-9.14-.94a5.52,5.52,0,0,0-.09-1,2.24,2.24,0,0,0-.31-.81,1.41,1.41,0,0,0-.57-.51,2,2,0,0,0-.9-.18,1.87,1.87,0,0,0-.9.2,1.64,1.64,0,0,0-.59.55,2.4,2.4,0,0,0-.32.8,5.07,5.07,0,0,0-.09,1,5.78,5.78,0,0,0,.09,1.07,2.43,2.43,0,0,0,.3.81,1.5,1.5,0,0,0,.57.52,2.21,2.21,0,0,0,.91.17,1.87,1.87,0,0,0,.9-.2,1.73,1.73,0,0,0,.59-.55,2.25,2.25,0,0,0,.32-.81,5.21,5.21,0,0,0,.09-1Zm1.55-.07a5.3,5.3,0,0,1-.23,1.61,3.28,3.28,0,0,1-.66,1.21,3,3,0,0,1-1.1.76,4.12,4.12,0,0,1-1.51.26,4.71,4.71,0,0,1-1.48-.22,2.62,2.62,0,0,1-1-.68,2.9,2.9,0,0,1-.63-1.15,5.9,5.9,0,0,1-.21-1.67,5.2,5.2,0,0,1,.22-1.58,3.2,3.2,0,0,1,.67-1.2,2.89,2.89,0,0,1,1.1-.76,4.15,4.15,0,0,1,1.51-.26,4.35,4.35,0,0,1,1.46.22,2.5,2.5,0,0,1,1.05.67,2.8,2.8,0,0,1,.64,1.15,5.34,5.34,0,0,1,.22,1.64Zm-8.54,3.51a.23.23,0,0,1,0,.11l-.13.07-.22,0-.35,0-.36,0-.22,0-.13-.07a.23.23,0,0,1,0-.11v-2.94h-2.72v2.94a.17.17,0,0,1,0,.11l-.11.07-.23,0-.35,0-.36,0-.23,0-.12-.07a.17.17,0,0,1,0-.11v-6.87a.12.12,0,0,1,0-.09.28.28,0,0,1,.12-.08l.23,0,.36,0,.35,0,.23,0a.24.24,0,0,1,.11.08.12.12,0,0,1,0,.09v2.68H116v-2.68a.16.16,0,0,1,0-.09.32.32,0,0,1,.13-.08l.22,0,.36,0,.35,0,.22,0a.32.32,0,0,1,.13.08.16.16,0,0,1,0,.09v6.87Zm-12.65-5.82h0l-1.9,3.33h1.91v-3.33Zm2.29,3.93a1.25,1.25,0,0,1-.06.44c0,.1-.09.15-.16.15h-.64v1.31a.18.18,0,0,1,0,.1.23.23,0,0,1-.11.07,1,1,0,0,1-.23.05h-.68a.8.8,0,0,1-.22-.05.19.19,0,0,1-.11-.07.13.13,0,0,1,0-.1V215h-2.77l-.15,0a.41.41,0,0,1-.1-.09.76.76,0,0,1-.06-.21,2.87,2.87,0,0,1,0-.35,2.91,2.91,0,0,1,0-.31,1.66,1.66,0,0,1,0-.24l.06-.2.09-.21,2.26-4a.22.22,0,0,1,.1-.09l.19-.06a1.82,1.82,0,0,1,.3,0h.94a2,2,0,0,1,.32.05.38.38,0,0,1,.18.08.12.12,0,0,1,.06.1v4.37h.64c.06,0,.11,0,.15.14a1,1,0,0,1,.07.46Zm-6.48,1.49a1.14,1.14,0,0,1,0,.28.78.78,0,0,1,0,.19.2.2,0,0,1-.07.1.21.21,0,0,1-.1,0H96.22a1.18,1.18,0,0,1-.21,0,.24.24,0,0,1-.15-.09.51.51,0,0,1-.08-.18,1.48,1.48,0,0,1,0-.33,2.69,2.69,0,0,1,0-.31.84.84,0,0,1,.07-.24.66.66,0,0,1,.11-.2,1.74,1.74,0,0,1,.19-.22l1.25-1.34a5.86,5.86,0,0,0,.61-.72,4.46,4.46,0,0,0,.36-.59,2.39,2.39,0,0,0,.17-.49,1.6,1.6,0,0,0,0-.42,1,1,0,0,0-.06-.36,1,1,0,0,0-.17-.29,1,1,0,0,0-.29-.19,1.21,1.21,0,0,0-.41-.07,1.68,1.68,0,0,0-.58.09,1.9,1.9,0,0,0-.45.19,2.94,2.94,0,0,0-.33.19.48.48,0,0,1-.2.09.11.11,0,0,1-.09,0,.36.36,0,0,1-.06-.11,1,1,0,0,1,0-.21,2.88,2.88,0,0,1,0-.32c0-.09,0-.16,0-.23a.8.8,0,0,1,0-.15.49.49,0,0,1,0-.11.47.47,0,0,1,.1-.11,1.15,1.15,0,0,1,.26-.17,2.85,2.85,0,0,1,.46-.21c.19-.06.39-.12.61-.17a3.85,3.85,0,0,1,.69-.06,3.24,3.24,0,0,1,1,.14,2,2,0,0,1,.7.4,1.52,1.52,0,0,1,.42.61,2,2,0,0,1,.14.75,3.26,3.26,0,0,1-.07.7,2.63,2.63,0,0,1-.28.74,5.72,5.72,0,0,1-.6.87,11.94,11.94,0,0,1-1,1.12l-.85.87h2.87a.17.17,0,0,1,.1,0,.24.24,0,0,1,.08.11.56.56,0,0,1,0,.18,2.13,2.13,0,0,1,0,.27Zm-9.83.4a.17.17,0,0,1,0,.11l-.12.07-.22,0-.36,0-.36,0-.23,0-.12-.07a.17.17,0,0,1,0-.11v-6.87a.12.12,0,0,1,0-.09.23.23,0,0,1,.12-.08l.23,0,.36,0,.36,0,.22,0a.23.23,0,0,1,.12.08.12.12,0,0,1,0,.09v6.87Zm-3.07-.36a1.64,1.64,0,0,1,.13.32.16.16,0,0,1,0,.18.45.45,0,0,1-.24.08l-.5,0h-.41a1,1,0,0,1-.23,0,.26.26,0,0,1-.13-.07.41.41,0,0,1-.07-.11l-1.37-2.63-1.35,2.63-.07.11a.4.4,0,0,1-.13.07,1.18,1.18,0,0,1-.25,0h-.4l-.46,0a.32.32,0,0,1-.21-.08.18.18,0,0,1,0-.18c0-.08.08-.18.15-.32l1.73-3.16-1.62-3a2.15,2.15,0,0,1-.13-.32c0-.09,0-.14,0-.18a.39.39,0,0,1,.24-.08h.91l.24,0a.32.32,0,0,1,.13.07.52.52,0,0,1,.07.11L85,211.83l1.24-2.41a.54.54,0,0,1,.06-.11.35.35,0,0,1,.12-.07,1,1,0,0,1,.23,0h.83a.38.38,0,0,1,.23.08.18.18,0,0,1,0,.18,1.93,1.93,0,0,1-.12.32l-1.62,3,1.72,3.18Zm-10-5.32h0l-1,3.09h2l-1-3.09Zm3.33,5.33a2.44,2.44,0,0,1,.08.32.21.21,0,0,1,0,.18.35.35,0,0,1-.22.08h-.88a.7.7,0,0,1-.24,0,.22.22,0,0,1-.12-.06.61.61,0,0,1,0-.12l-.48-1.46H76.42L76,216.26a.26.26,0,0,1-.06.13.19.19,0,0,1-.11.08.66.66,0,0,1-.23.05h-.39l-.41,0a.31.31,0,0,1-.2-.08.22.22,0,0,1,0-.18,2.11,2.11,0,0,1,.08-.32l2.24-6.45a.53.53,0,0,1,.08-.15.28.28,0,0,1,.14-.09,1,1,0,0,1,.27,0h1a1.17,1.17,0,0,1,.31,0,.27.27,0,0,1,.15.09.54.54,0,0,1,.09.17l2.24,6.44Zm-6.34-6.11a2.35,2.35,0,0,1,0,.28.6.6,0,0,1,0,.18.23.23,0,0,1-.07.11l-.09,0H72.74v5.86a.17.17,0,0,1,0,.11l-.12.07-.22,0-.36,0-.36,0-.23,0-.12-.07a.23.23,0,0,1,0-.11v-5.86H69.44a.14.14,0,0,1-.09,0,.23.23,0,0,1-.07-.11.6.6,0,0,1,0-.18,2.35,2.35,0,0,1,0-.28,2.27,2.27,0,0,1,0-.28.69.69,0,0,1,0-.19.2.2,0,0,1,.07-.1.14.14,0,0,1,.09,0h5.12l.09,0a.2.2,0,0,1,.07.1.69.69,0,0,1,0,.19,2.27,2.27,0,0,1,0,.28Z"/><path class="cls-4" d="M84,109.48c-.82.22-2.47,0-3.41.1,12.83.09,33.86,1.16,46.48,0l-3.25,0c-1.31-2.83-3.29-12.29-4.35-13.69l-.43-.55c-.87-1-2.87-.67-4.32-.67-6.5,0-13.3.07-19.75,0-1.61,0-3.32.07-4.92,0-2.24.06-2.25,2.61-2.74,3.52-.34.65.08,0-.32,1s-.61,2.48-1,3.71a5.93,5.93,0,0,0-.24.81c-.08.26-1.72,5.78-1.72,5.79Z"/><path class="cls-5" d="M88.65,103.67h1.93v2H88.65v-2Zm3.89,0h1.95v2H92.54v-2Zm3.9,0h2v2h-2v-2Zm3.91,0h1.94v2h-1.94v-2Zm3.9,0h1.94v2h-1.94v-2Zm3.9,0h1.94v2h-1.94v-2Zm3.9,0h2v2h-2v-2Zm3.9,0h2v2h-2v-2Zm3.91,0h1.94v2h-1.94v-2Zm-33.15,1.92h1.93v1.94H86.71v-1.94Zm3.89,0h1.94v1.94H90.6v-1.94Zm3.9,0h1.94v1.94H94.5v-1.94Zm3.9,0h1.95v1.94H98.4v-1.94Zm3.9,0h2v1.94h-2v-1.94Zm3.91,0h1.94v1.94h-1.94v-1.94Zm3.9,0h1.94v1.94h-1.94v-1.94Zm3.9,0H116v1.94H114v-1.94Zm3.9,0h2v1.94h-2v-1.94Zm-33.17,1.53-.12.41h.12v-.41Zm38.38.41c-.19-.59-.38-1.25-.58-1.94h-.73v1.94Zm-37.35-3.86h.91v2H85.19l.57-1.93v0Z"/><path class="cls-2" d="M110.75,102.07V97.44h1v4.63Zm-1.31,0h-1.12l-1.07-1.76-1.07,1.76h-1.06l1.53-2.39-1.43-2.24h1.07l1,1.67,1-1.67h1l-1.44,2.29,1.56,2.34Zm-6.68-1.93c-.32-1-.49-1.56-.53-1.69s-.06-.24-.08-.31c-.06.27-.26.94-.59,2Zm.57,1.93L103,101h-1.69l-.33,1.11H99.92l1.62-4.66h1.21l1.64,4.66Zm-5.08,0h-1V98.26H96v-.82h3.49v.82H98.25v3.81Z"/><path class="cls-4" d="M139.58,171.91a11.53,11.53,0,0,0,5.15,5.57c6.09,2.9,31.86,8.36,28.88-9.21-6.62-1.31-28.22.21-34,3.64ZM63,177.48a11.6,11.6,0,0,0,5.16-5.57c-5.82-3.43-27.41-4.95-34-3.64-3,17.57,22.79,12.11,28.87,9.21Zm12,0a9.44,9.44,0,0,0,9.43,9.42h38.9a9.44,9.44,0,0,0,9.42-9.42V171a9.46,9.46,0,0,0-9.42-9.43H84.43A9.46,9.46,0,0,0,75,171v6.5Zm-27.75-40c17.65.31,37.73-2.15,56.2-2.17,19.12,0,38.24,2,57,2.17l-10.14-19.67c-1.87-3-1.91-4.22-5.93-4.88-14.78-2.42-65-2.09-80.32-.09-5.59.74-5.55,2.94-9.93,10.73a111.64,111.64,0,0,0-6.9,13.91ZM38,127.92c-3-.21-7.68,1.12-9.1,3.22-6.05,8.82,9.28,7.57,13.61,7.78-2.81,2.37-13.46,13.55-14.11,16.21-.71,3-.71,26.6-.78,31.69-.1,7.34-1.81,24.67,4.61,27,1.85.67,12.1.74,14.32.25,5.29-1.17,4.16-6,4.39-11.73,18.62-1.3,87.24-1.3,105.77,0,.23,5.33-.83,10.13,3.78,11.58,2.24.7,12.95.62,14.94-.1,7.95-2.92,3.82-31.88,4-41.75.28-17.26-.26-22.14-14.26-33.18,4.58-.22,18.34,1.45,13.94-7.25-1.32-2.61-9.73-5.89-12.84-2.28-6.29,7.38-5.62-.54-11.36-8.83-6.69-13.39-8.37-13.17-29.37-13-6.9-.31-14.37-.57-21.29-.59-7.17,0-34.82.84-40.78,2.23-5.84.12-13.49,15.21-16.21,20.55-4.24,8.37-3.46-1.45-9.25-1.88Z"/></svg>