<?xml version="1.0" encoding="utf-8"?>
<!-- Generator: Adobe Illustrator 16.0.0, SVG Export Plug-In . SVG Version: 6.00 Build 0)  -->
<!DOCTYPE svg PUBLIC "-//W3C//DTD SVG 1.1//EN" "http://www.w3.org/Graphics/SVG/1.1/DTD/svg11.dtd">
<svg version="1.1" id="Layer_1" xmlns="http://www.w3.org/2000/svg" xmlns:xlink="http://www.w3.org/1999/xlink" x="0px" y="0px"
	 width="600px" height="600px" viewBox="0 0 600 600" enable-background="new 0 0 600 600" xml:space="preserve">
<path fill-rule="evenodd" clip-rule="evenodd" fill="#41BA87" d="M410.991,147.113c5.043,1.642,10.436,2.612,15.092,5.03
	c16.915,8.768,26.433,22.851,26.563,42.017c0.323,49.038,0.116,98.077,0.09,147.103c0,7.112-5.018,12.299-11.768,12.35
	c-6.932,0.053-12.053-5.146-12.053-12.376c-0.026-48.146,0-96.279-0.014-144.426c-0.013-10.397-3.996-18.687-13.643-23.213
	c-3.479-1.629-7.644-2.496-11.484-2.509c-69.238-0.142-138.477-0.142-207.702-0.078c-14.691,0.014-24.998,10.308-24.998,25.012
	c-0.064,69.226-0.064,138.451-0.013,207.676c0.013,15.092,10.437,25.128,25.813,25.141c47.836,0.013,95.685,0,143.521,0.013
	c7.733,0,12.983,5.276,12.674,12.647c-0.246,5.794-5.057,10.747-10.851,11.16c-0.698,0.039-1.396,0.039-2.082,0.039
	c-48.34,0-96.68,0.025-145.021-0.013c-21.041-0.026-38.913-12.983-45.573-32.964c-0.957-2.871-1.577-5.858-2.366-8.794
	c0-74.011,0-148.021,0-222.031c0.207-0.427,0.504-0.841,0.582-1.293c2.768-16.333,11.613-28.296,26.382-35.589
	c4.629-2.276,9.867-3.299,14.819-4.901C262.97,147.113,336.968,147.113,410.991,147.113z"/>
<path fill-rule="evenodd" clip-rule="evenodd" fill="#1080C4" d="M452.735,419.657c-0.711,12.479-7.475,23.82-21.312,29.898
	c-13.657,6.001-26.563,3.789-38.099-5.78c-1.15-0.957-2.211-2.005-3.271-3.064c-20.717-20.77-41.422-41.551-62.178-62.281
	c-2.611-2.612-4.307-5.574-5.276-9.13c-4.009-14.729-8.159-29.421-12.233-44.138c-2.212-7.992,0.763-14.458,7.953-16.308
	c2.444-0.634,5.393-0.4,7.85,0.323c14.949,4.358,29.848,8.871,44.681,13.579c2.548,0.802,5.108,2.393,6.996,4.268
	c21.377,21.234,42.638,42.585,63.885,63.949C449.309,398.591,452.774,407.061,452.735,419.657z M406.051,388.749
	c-11.949-11.846-24.157-23.523-35.822-35.731c-5.393-5.651-11.212-9.737-18.906-11.315c-4.087-0.827-8.044-2.314-12.479-3.634
	c2.237,8.069,4.293,15.622,6.479,23.122c0.311,1.035,1.242,1.979,2.069,2.794c13.308,13.385,26.64,26.743,39.974,40.09
	c0.62,0.62,1.28,1.163,1.759,1.603C394.722,400.078,400.18,394.62,406.051,388.749z M406.62,423.291
	c3.659,4.164,7.953,6.66,13.656,4.927c4.811-1.461,7.682-4.85,8.405-9.789c0.751-5.135-1.759-8.871-5.38-11.82
	C417.702,412.221,412.245,417.679,406.62,423.291z"/>
<path fill-rule="evenodd" clip-rule="evenodd" fill="#41BA87" d="M299.633,226.49c-26.835,0-53.682,0-80.516,0
	c-4.927,0-8.651-2.121-10.915-6.466c-2.185-4.229-1.849-8.483,0.893-12.39c2.457-3.491,5.948-5.018,10.242-5.018
	c22.166,0.039,44.331,0.013,66.497,0.013c31.618,0,63.225,0.014,94.844,0c4.915,0,8.678,2.018,10.992,6.337
	c2.251,4.216,1.953,8.471-0.724,12.39c-2.483,3.634-6.091,5.16-10.488,5.146C353.521,226.464,326.57,226.49,299.633,226.49z"/>
<path fill-rule="evenodd" clip-rule="evenodd" fill="#41BA87" d="M299.917,250.389c27.041,0,54.095-0.013,81.136,0
	c4.785,0.013,8.432,2.173,10.644,6.389c2.225,4.229,1.914,8.471-0.789,12.389c-2.431,3.518-5.923,5.096-10.216,5.082
	c-14.614-0.038-29.228-0.013-43.841-0.013c-39.171,0-78.342,0.013-117.5-0.013c-8.885,0-14.691-7.967-11.795-16.023
	c1.759-4.862,6.169-7.811,11.846-7.811C246.249,250.376,273.083,250.389,299.917,250.389z"/>
<path fill-rule="evenodd" clip-rule="evenodd" fill="#41BA87" d="M246.287,321.98c-8.949,0-17.885,0.026-26.834,0
	c-7.319-0.025-12.544-4.952-12.569-11.819c-0.039-7.022,5.186-12.014,12.673-12.014c17.781-0.026,35.563-0.026,53.346,0
	c7.513,0,12.751,4.952,12.725,11.961c-0.013,6.984-5.263,11.859-12.829,11.872C263.966,322.007,255.12,321.98,246.287,321.98z"/>
</svg>
