<?xml version="1.0" encoding="utf-8"?>
<!-- Generator: Adobe Illustrator 16.0.0, SVG Export Plug-In . SVG Version: 6.00 Build 0)  -->
<!DOCTYPE svg PUBLIC "-//W3C//DTD SVG 1.1//EN" "http://www.w3.org/Graphics/SVG/1.1/DTD/svg11.dtd">
<svg version="1.1" id="Layer_1" xmlns="http://www.w3.org/2000/svg" xmlns:xlink="http://www.w3.org/1999/xlink" x="0px" y="0px"
	 width="600px" height="600px" viewBox="0 0 600 600" enable-background="new 0 0 600 600" xml:space="preserve">
<g>
	<g>
		<path fill-rule="evenodd" clip-rule="evenodd" fill="#41BA87" d="M330.632,396.458c3.91,13.029,7.728,25.751,11.576,38.574
			c5.191,0,10.193,0,15.403,0c0,3.207,0,6.248,0,9.455c-38.361,0-76.671,0-115.206,0c0-3.006,0-6.049,0-9.365
			c5.07,0,10.149,0,15.359,0c3.88-12.933,7.697-25.656,11.599-38.664c-1.503,0-2.69,0-3.878,0c-31.422,0-62.845,0.002-94.266-0.001
			c-10.037-0.001-15.788-5.802-15.789-15.913c-0.002-69.771-0.002-139.543,0.001-209.315c0-9.878,5.823-15.716,15.679-15.716
			c85.934-0.002,171.868-0.002,257.802,0c9.856,0,15.656,5.832,15.656,15.741c0.003,69.871,0.003,139.743-0.002,209.614
			c-0.001,9.686-5.871,15.584-15.511,15.588c-31.522,0.005-63.045,0.002-94.567,0.002
			C333.307,396.458,332.125,396.458,330.632,396.458z M434.952,357.868c0-1.139,0-2.022,0-2.905
			c0-61.043,0.002-122.086-0.002-183.13c0-5.133-1.637-6.703-6.943-6.703c-85.34-0.001-170.68-0.001-256.02,0
			c-5.422,0-6.938,1.533-6.94,7.004c-0.001,60.843-0.001,121.686-0.001,182.527c0,1.052,0,2.104,0,3.207
			C255.175,357.868,344.824,357.868,434.952,357.868z M434.938,367.757c-90.152,0-179.941,0-269.684,0
			c-0.094,0.404-0.176,0.596-0.178,0.785c-0.015,3.515-0.027,7.027-0.03,10.543c-0.003,6.498,1.248,7.755,7.698,7.755
			c84.835,0.001,169.671,0.001,254.507,0c0.901,0,1.811,0.048,2.709-0.024c2.988-0.248,4.861-2.017,4.944-5.025
			C435.031,377.186,434.938,372.577,434.938,367.757z M331.979,434.96c-3.729-12.497-7.387-24.649-10.962-36.826
			c-0.498-1.695-1.581-1.696-2.954-1.693c-12.039,0.029-24.081,0.057-36.121-0.025c-1.813-0.012-2.619,0.521-3.114,2.291
			c-1.7,6.068-3.581,12.084-5.388,18.123c-1.791,5.987-3.578,11.974-5.416,18.131C289.468,434.96,310.528,434.96,331.979,434.96z"/>
		<path fill-rule="evenodd" clip-rule="evenodd" fill="#1080C4" d="M338.683,348.263c-23.788,0-47.577,0.007-71.365-0.002
			c-9.62-0.002-15.497-5.917-15.498-15.594c-0.005-33.021-0.006-66.045,0-99.068c0.002-9.463,5.937-15.428,15.353-15.432
			c17.364-0.01,34.729,0.051,52.095-0.039c4.723-0.024,8.561,1.584,11.82,4.924c3.787,3.879,7.732,7.602,11.459,11.535
			c1.941,2.049,4.07,2.909,6.902,2.896c20.175-0.081,40.35-0.049,60.525-0.039c9.277,0.004,15.308,5.97,15.313,15.17
			c0.013,26.798,0.011,53.599,0,80.398c-0.003,9.252-5.992,15.243-15.239,15.247C386.261,348.271,362.472,348.263,338.683,348.263z
			 M338.25,338.647c23.492,0,46.982,0.002,70.474-0.002c5.418,0,6.949-1.545,6.951-7.002c0.002-25.802,0.002-51.602,0-77.4
			c0-5.696-1.463-7.184-7.064-7.186c-20.18-0.002-40.358-0.043-60.536,0.032c-4.611,0.017-8.376-1.563-11.567-4.808
			c-3.874-3.937-7.865-7.755-11.68-11.746c-1.867-1.955-3.917-2.811-6.643-2.797c-16.665,0.082-33.33,0.036-49.994,0.045
			c-5.188,0.001-6.755,1.6-6.755,6.883c-0.004,32.325-0.004,64.651-0.001,96.977c0.001,5.461,1.525,7.002,6.943,7.002
			C291.669,338.649,314.96,338.647,338.25,338.647z"/>
		<path fill-rule="evenodd" clip-rule="evenodd" fill="#1080C4" d="M327.712,204.894c-2.466,2.387-4.62,4.47-7.471,7.23
			c-2.397-2.651-4.834-5.543-7.521-8.178c-0.682-0.668-2.338-1-3.25-0.669c-4.888,1.776-9.651,3.898-14.535,5.69
			c-1.165,0.428-2.762,0.406-3.928-0.029c-4.499-1.682-8.946-3.523-13.315-5.519c-1.132-0.518-2.265-1.644-2.791-2.774
			c-2.192-4.719-4.07-9.585-6.277-14.297c-0.413-0.883-1.773-1.795-2.748-1.854c-3.594-0.222-7.207-0.087-10.862-0.087
			c-2.347,5.471-4.545,10.848-6.984,16.111c-0.562,1.213-1.859,2.155-2.979,3.014c-0.77,0.586-1.814,0.818-2.741,1.192
			c-4.081,1.645-8.177,4.604-12.243,4.567c-4.306-0.041-8.605-2.88-12.871-4.588c-5.626-2.254-5.296-1.898-9.845,1.75
			c-4.451,3.57-5.344,7.074-2.347,11.811c4.94,7.813,4.522,15.42,0.052,23.521c-2.041,3.697-3.81,6.631-8.027,7.949
			c-3.707,1.159-7.252,2.896-10.748,4.621c-0.885,0.436-1.806,1.766-1.867,2.738c-0.225,3.494-0.089,7.014-0.089,10.817
			c5.266,2.276,10.611,4.456,15.82,6.929c1.363,0.646,2.738,1.999,3.352,3.365c2.202,4.922,5.604,9.977,5.65,15.004
			c0.041,4.916-3.307,9.934-5.48,14.767c-1.159,2.58-0.95,4.308,1.291,6.111c2.404,1.936,4.261,5.412,6.856,5.996
			c2.428,0.545,5.69-1.501,8.267-2.966c6.753-3.847,13.269-4.013,19.865,0.248c1.151,0.742,2.547,1.108,4.104,1.765
			c-1.22,2.946-2.387,5.768-3.698,8.938c-2.641-1.092-5.16-1.988-7.543-3.161c-2.074-1.021-3.901-0.88-5.985,0.018
			c-5.146,2.217-10.398,4.184-15.566,6.351c-1.501,0.63-2.464,0.454-3.639-0.76c-4.958-5.116-9.987-10.17-15.12-15.11
			c-1.348-1.298-1.331-2.347-0.684-3.899c2.197-5.263,4.403-10.532,6.311-15.906c0.533-1.505,0.32-3.433-0.023-5.066
			c-1.168-5.546-4.57-8.881-10.111-10.494c-3.816-1.112-7.357-3.147-11.082-4.614c-1.603-0.633-2.277-1.43-2.247-3.256
			c0.117-7.125,0.104-14.253,0.005-21.378c-0.021-1.666,0.502-2.467,2.045-3.093c5.291-2.141,10.485-4.519,15.781-6.641
			c1.934-0.776,2.832-2.124,3.818-3.854c2.834-4.964,2.754-9.624,0.057-14.654c-1.927-3.595-3.265-7.528-4.608-11.4
			c-0.319-0.922,0.017-2.56,0.687-3.259c5-5.216,10.213-10.227,15.231-15.424c1.223-1.267,2.216-1.246,3.662-0.646
			c5.267,2.188,10.604,4.211,15.85,6.451c1.906,0.813,3.505,0.548,5.431-0.005c5.324-1.529,8.656-4.636,10.26-10.054
			c1.157-3.909,3.246-7.534,4.703-11.367c0.662-1.75,1.673-2.108,3.365-2.09c7.025,0.08,14.052,0.093,21.078-0.007
			c1.761-0.025,2.64,0.516,3.307,2.173c2.129,5.295,4.319,10.575,6.771,15.724c0.685,1.439,2.207,2.631,3.599,3.554
			c4.859,3.217,9.734,2.942,14.857,0.212c3.604-1.92,7.545-3.223,11.4-4.62c0.807-0.292,2.234-0.146,2.809,0.397
			C319.14,196.316,323.37,200.596,327.712,204.894z"/>
		<path fill-rule="evenodd" clip-rule="evenodd" fill="#1080C4" d="M240.177,218.549c1.408,2.847,2.727,5.517,4.042,8.178
			c-28.35,14.64-28.159,54.614,0.042,69.534c-1.351,2.722-2.708,5.455-4.056,8.174c-12.222-4.795-25.954-20.372-26.931-40.279
			C212.104,240.302,227.718,223.685,240.177,218.549z"/>
		<path fill-rule="evenodd" clip-rule="evenodd" fill="#1080C4" d="M292.446,290.384c6.998,6.969,13.791,13.734,20.709,20.624
			c-2.518,2.331-4.775,4.421-6.859,6.349c-8.889-8.892-17.945-17.952-26.788-26.799c8.854-8.836,17.974-17.935,27.141-27.082
			c1.847,1.844,4.021,4.016,6.4,6.393C306.203,276.685,299.407,283.453,292.446,290.384z"/>
		<path fill-rule="evenodd" clip-rule="evenodd" fill="#1080C4" d="M385.013,290.706c-7.297-7.271-14.033-13.979-20.91-20.831
			c2.42-2.159,4.701-4.194,6.689-5.97c8.721,8.705,17.827,17.797,26.754,26.708c-8.688,8.69-17.74,17.739-26.894,26.895
			c-1.849-2.009-3.922-4.261-6.007-6.526C371.131,304.524,377.922,297.765,385.013,290.706z"/>
		<path fill-rule="evenodd" clip-rule="evenodd" fill="#1080C4" d="M348.844,268.846c2.938,1.634,5.556,3.091,8.503,4.73
			c-8.055,14.488-16.053,28.878-24.146,43.438c-2.914-1.624-5.596-3.118-8.502-4.737
			C332.741,297.811,340.706,283.482,348.844,268.846z"/>
	</g>
</g>
</svg>
