<?xml version="1.0" encoding="utf-8"?>
<!-- Generator: Adobe Illustrator 16.0.0, SVG Export Plug-In . SVG Version: 6.00 Build 0)  -->
<!DOCTYPE svg PUBLIC "-//W3C//DTD SVG 1.1//EN" "http://www.w3.org/Graphics/SVG/1.1/DTD/svg11.dtd">
<svg version="1.1" id="Layer_1" xmlns="http://www.w3.org/2000/svg" xmlns:xlink="http://www.w3.org/1999/xlink" x="0px" y="0px"
	 width="600px" height="600px" viewBox="0 0 600 600" enable-background="new 0 0 600 600" xml:space="preserve">
<g>
	<path fill-rule="evenodd" clip-rule="evenodd" fill="#41BA87" d="M312.333,124.589c6.296,0.916,12.592,1.824,18.885,2.757
		c1.125,0.166,2.246,0.392,3.351,0.66c4.24,1.021,6.575,4.419,5.724,8.281c-0.802,3.635-4.352,5.873-8.399,5.268
		c-4.505-0.673-8.995-1.463-13.512-2.043c-22.882-2.928-45.394-0.775-67.198,6.449c-45.97,15.233-79.191,45.043-99.116,89.227
		c-10.776,23.899-15.049,49.09-13.237,75.322c2.194,31.783,12.787,60.41,31.654,86.025c0.603,0.82,1.257,1.604,2.037,2.594
		c8.343-4.006,16.856-4.603,25.408-0.902c6.18,2.676,10.826,7.117,13.956,13.085c6.301,12.017,3.194,27.032-7.329,35.606
		c-10.578,8.619-25.626,8.686-36.346,0.086c-9.488-7.612-15.273-22.713-6.489-37.688c-6.164-10.211-12.656-19.875-18.043-30.12
		c-10.563-20.087-16.519-41.63-18.396-64.274c-0.093-1.117-0.425-2.214-0.646-3.32c0-7.991,0-15.984,0-23.976
		c0.766-5.628,1.362-11.285,2.324-16.88c5.451-31.699,18.41-59.969,39.396-84.371c27.203-31.631,61.297-51.517,102.44-59.017
		c6.253-1.14,12.583-1.856,18.877-2.77C295.894,124.589,304.113,124.589,312.333,124.589z M186.445,409.645
		c-8.183-0.061-15.086,6.749-15.116,14.908c-0.029,8.104,6.939,15.073,15.043,15.039c8.009-0.033,14.798-6.771,14.902-14.791
		C201.381,416.6,194.638,409.707,186.445,409.645z"/>
	<path fill-rule="evenodd" clip-rule="evenodd" fill="#1080C4" d="M205.49,354.902c-3.451-8.972-6.491-17.041-9.729-25.031
		c-0.329-0.812-1.816-1.562-2.81-1.621c-3.413-0.201-6.849-0.006-10.27-0.109c-4.878-0.146-7.327-2.646-7.338-7.502
		c-0.03-13.813-0.025-27.627,0.008-41.439c0.012-4.856,2.444-7.397,7.305-7.577c3.42-0.126,6.851-0.099,10.272-0.015
		c1.752,0.043,2.46-0.594,3.123-2.31c2.792-7.204,5.929-14.274,8.765-21.463c0.377-0.954,0.167-2.651-0.476-3.402
		c-2.142-2.511-4.628-4.724-6.937-7.099c-3.68-3.784-3.754-7.342-0.086-11.037c9.652-9.719,19.339-19.406,29.063-29.055
		c3.713-3.684,7.253-3.622,11.036,0.044c2.376,2.305,4.583,4.798,7.093,6.94c0.756,0.646,2.448,0.875,3.402,0.502
		c7.3-2.855,14.552-5.844,21.736-8.979c0.93-0.404,1.898-1.85,1.975-2.877c0.252-3.406,0.018-6.846,0.129-10.266
		c0.158-4.875,2.665-7.292,7.545-7.303c13.813-0.029,27.627-0.031,41.439,0.001c4.863,0.011,7.355,2.442,7.514,7.335
		c0.106,3.308,0.108,6.624,0.001,9.93c-0.06,1.863,0.529,2.693,2.404,3.413c7.107,2.722,14.133,5.672,21.095,8.752
		c1.76,0.779,2.785,0.778,4.1-0.667c2.301-2.532,4.753-4.935,7.251-7.274c3.243-3.04,6.873-3.13,10.044-0.003
		c10.079,9.938,20.097,19.941,30.034,30.022c3.097,3.14,2.95,6.776-0.119,10.06c-2.336,2.502-4.77,4.918-7.261,7.266
		c-1.242,1.167-1.505,2.062-0.737,3.789c3.137,7.063,6.108,14.205,8.892,21.415c0.672,1.742,1.441,2.302,3.162,2.265
		c3.422-0.078,6.853-0.113,10.272,0.016c4.848,0.184,7.261,2.72,7.273,7.6c0.031,13.813,0.034,27.625-0.001,41.439
		c-0.014,4.846-2.477,7.333-7.366,7.48c-3.309,0.1-6.623,0.097-9.931,0.003c-1.82-0.05-2.699,0.435-3.434,2.357
		c-2.754,7.218-5.914,14.282-8.753,21.47c-0.374,0.948-0.173,2.643,0.467,3.379c2.313,2.666,4.985,5.016,7.415,7.589
		c3.173,3.362,3.246,7.001-0.016,10.307c-9.867,9.991-19.794,19.923-29.785,29.786c-3.266,3.225-6.938,3.119-10.298-0.166
		c-3.006-2.939-5.816-6.081-8.078-8.465c-8.803,3.433-16.76,6.465-24.63,9.705c-0.903,0.371-1.807,1.882-1.881,2.922
		c-0.24,3.408-0.012,6.846-0.125,10.268c-0.162,4.883-2.664,7.301-7.539,7.312c-13.813,0.03-27.627,0.03-41.439-0.001
		c-4.862-0.012-7.359-2.443-7.517-7.334c-0.11-3.422,0.118-6.859-0.124-10.269c-0.074-1.034-0.995-2.527-1.903-2.902
		c-7.867-3.248-15.819-6.288-24.644-9.742c-2.037,2.183-4.607,5.077-7.329,7.823c-4.162,4.195-7.658,4.215-11.775,0.111
		c-9.464-9.426-18.904-18.874-28.327-28.338c-4.139-4.158-4.141-7.609,0.053-11.762C200.448,359.475,203.341,356.906,205.49,354.902
		z M314.435,410.75c0-3.318-0.006-6.379,0.003-9.44c0.016-5.954,1.542-8.04,7.273-9.371c10.194-2.368,19.665-6.411,28.559-11.886
		c4.368-2.688,6.972-2.418,10.637,1.296c2.374,2.403,4.504,5.048,6.464,7.27c7.42-7.39,14.109-14.054,21.374-21.288
		c-2.446-2.218-5.146-4.497-7.649-6.973c-3.161-3.127-3.514-6.057-1.164-9.826c5.711-9.166,9.778-18.992,12.313-29.486
		c1.247-5.163,3.328-6.662,8.736-6.68c3.259-0.013,6.52-0.004,9.717-0.004c0-9.9,0-19.305,0-28.877
		c-3.338,0-6.416,0.017-9.491-0.003c-5.638-0.039-7.817-1.659-9.121-7.19c-2.399-10.177-6.392-19.666-11.875-28.557
		c-2.693-4.365-2.421-7.127,1.187-10.662c2.416-2.367,5.063-4.495,7.325-6.482c-7.384-7.461-14.026-14.174-21.268-21.492
		c-2.206,2.457-4.392,5.088-6.788,7.512c-3.406,3.445-6.23,3.749-10.391,1.143c-9.155-5.742-19.025-9.709-29.514-12.216
		c-4.422-1.058-6.247-3.383-6.314-8.015c-0.049-3.393-0.01-6.787-0.01-10.322c-9.762,0-19.162,0-28.869,0
		c0,3.594,0.045,6.995-0.012,10.394c-0.077,4.583-1.854,6.874-6.387,7.976c-10.589,2.572-20.547,6.605-29.802,12.398
		c-3.737,2.338-6.755,1.967-9.835-1.176c-2.455-2.505-4.687-5.229-7.006-7.843c-7.332,7.453-13.958,14.188-21.177,21.526
		c2.395,2.164,5.11,4.412,7.579,6.904c3.117,3.145,3.47,6.18,1.158,9.867c-5.736,9.152-9.785,18.982-12.326,29.473
		c-1.231,5.088-3.432,6.709-8.734,6.76c-3.258,0.031-6.514,0.006-9.713,0.006c0,9.922,0,19.322,0,28.877
		c3.454,0,6.645-0.01,9.834,0.004c5.285,0.023,7.399,1.589,8.648,6.801c2.492,10.39,6.544,20.102,12.154,29.189
		c2.473,4.004,2.183,6.85-1.135,10.1c-2.499,2.451-5.241,4.654-7.724,6.836c7.412,7.471,14.067,14.176,21.3,21.465
		c2.313-2.55,4.582-5.251,7.063-7.739c3.216-3.227,6.061-3.607,9.827-1.257c9.261,5.781,19.182,9.887,29.801,12.406
		c4.75,1.127,6.42,3.425,6.477,8.266c0.041,3.388,0.008,6.779,0.008,10.318C295.271,410.75,304.589,410.75,314.435,410.75z"/>
	<path fill-rule="evenodd" clip-rule="evenodd" fill="#41BA87" d="M427.562,200.906c-17.106,6.148-30.905,2.171-38.709-11.01
		c-7.077-11.957-4.59-27.082,5.981-36.366c10.329-9.071,25.919-9.401,36.857-0.722c9.56,7.584,15.343,22.794,6.343,38.125
		c4.668,7.193,9.657,14.133,13.881,21.51c18.122,31.66,25.813,65.731,22.82,102.141c-5.71,69.478-52.104,129.047-118.203,151.527
		c-29.095,9.896-58.85,11.722-89.069,6.295c-4.827-0.865-7.474-3.34-7.63-6.969c-0.194-4.531,3.973-7.541,8.875-7.013
		c11.315,1.22,22.674,3.137,33.995,3.013c74.172-0.82,138.979-53.567,154.849-126.09c10.508-48.016,0.704-92.015-27.965-131.866
		C428.935,202.574,428.207,201.722,427.562,200.906z M428.141,175.791c0.302-8.092-5.757-14.624-14.021-15.111
		c-7.704-0.457-15.074,6.59-15.185,14.518c-0.106,7.637,6.812,14.941,14.595,14.795
		C421.689,189.837,427.944,183.878,428.141,175.791z"/>
	<path fill-rule="evenodd" clip-rule="evenodd" fill="#1080C4" d="M362.926,136.854c3.978-0.064,6.934,2.796,6.951,6.73
		c0.019,3.906-2.991,6.979-6.821,6.967c-3.603-0.012-6.715-3.047-6.839-6.67C356.085,140.007,359.033,136.918,362.926,136.854z"/>
	<path fill-rule="evenodd" clip-rule="evenodd" fill="#1080C4" d="M244.06,456.373c0.006,3.854-3.07,6.891-6.934,6.842
		c-3.676-0.047-6.734-3.027-6.847-6.668c-0.112-3.619,3.182-7.037,6.85-7.104C240.845,449.376,244.055,452.584,244.06,456.373z"/>
	<path fill-rule="evenodd" clip-rule="evenodd" fill="#1080C4" d="M356.731,300.103c-0.145,31.078-25.796,56.628-56.792,56.571
		c-31.169-0.057-56.954-26.014-56.664-57.04c0.291-31.138,25.997-56.588,56.965-56.396
		C331.327,243.432,356.875,269.148,356.731,300.103z M300.099,257.188c-23.706-0.063-42.866,19.041-42.877,42.754
		c-0.011,23.561,18.896,42.587,42.512,42.783c23.66,0.195,42.899-18.838,43.051-42.59
		C342.936,276.48,323.823,257.253,300.099,257.188z"/>
</g>
</svg>
