<?xml version="1.0" encoding="utf-8"?>
<!-- Generator: Adobe Illustrator 16.0.0, SVG Export Plug-In . SVG Version: 6.00 Build 0)  -->
<!DOCTYPE svg PUBLIC "-//W3C//DTD SVG 1.1//EN" "http://www.w3.org/Graphics/SVG/1.1/DTD/svg11.dtd">
<svg version="1.1" id="Layer_1" xmlns="http://www.w3.org/2000/svg" xmlns:xlink="http://www.w3.org/1999/xlink" x="0px" y="0px"
	 width="600px" height="600px" viewBox="0 0 600 600" enable-background="new 0 0 600 600" xml:space="preserve">
<g>
	<path fill-rule="evenodd" clip-rule="evenodd" fill="#41BA87" d="M452.014,206.182c0,2.572,0,5.146,0,7.719
		c-3.033,10.182-11.928,15.496-18.497,23.01c-7.269-7.291-14.188-14.229-21.093-21.16c-3.228-3.225-6.351-6.545-9.706-9.617
		c-4.996-4.585-12.78-2.585-14.6,3.715c-1.098,3.775,0.181,6.909,2.956,9.655c9.216,9.116,18.354,18.31,27.52,27.481
		c0.735,0.746,1.446,1.533,1.859,1.973c-4.687,4.678-9.179,9.174-13.954,13.939c-0.478-0.587-1.123-1.484-1.885-2.252
		c-4.943-4.985-9.888-9.991-14.908-14.896c-3.111-3.027-7.048-3.5-10.637-1.533c-3.291,1.808-5.15,5.371-4.234,9.288
		c0.452,1.897,1.627,3.84,2.982,5.267c5.46,5.695,11.127,11.198,16.342,16.395c-4.725,4.739-9.217,9.258-14.083,14.15
		c-0.465-0.607-1.046-1.553-1.808-2.318c-9.151-9.184-18.342-18.326-27.481-27.516c-2.233-2.237-4.763-3.548-7.951-3.125
		c-3.665,0.487-6.145,2.492-7.332,6.038c-1.252,3.728-0.052,6.796,2.582,9.433c9.293,9.322,18.601,18.62,27.907,27.93
		c0.735,0.746,1.445,1.526,1.885,1.999c-4.608,4.616-9.074,9.077-13.67,13.671c-0.529-0.489-1.252-1.122-1.936-1.807
		c-4.699-4.685-9.373-9.377-14.07-14.053c-4.621-4.603-10.004-5.048-13.813-1.165c-3.73,3.791-3.266,9.126,1.201,13.604
		c4.75,4.764,9.525,9.5,14.276,14.277c0.658,0.671,1.265,1.406,1.523,1.703c-4.596,4.596-8.972,8.972-13.541,13.528
		c-5.744-5.783-11.733-11.824-17.723-17.852c-4.132-4.145-8.171-8.364-12.432-12.354c-4.981-4.661-12.74-2.763-14.65,3.522
		c-1.148,3.758,0.052,6.933,2.827,9.684c9.062,8.983,18.059,18.058,27.12,27.041c0.903,0.904,2.065,1.523,2.892,2.117
		c-5.086,5.099-9.604,9.616-14.251,14.264c-5.434-5.461-11.05-11.179-16.755-16.807c-3.976-3.925-9.358-3.975-12.96-0.271
		c-3.408,3.499-3.252,8.997,0.452,12.767c5.008,5.073,10.081,10.082,15.115,15.115c0.658,0.671,1.291,1.369,1.627,1.729
		c-4.699,4.712-9.152,9.179-13.709,13.747c-0.529-0.503-1.252-1.16-1.937-1.845c-9.319-9.308-18.613-18.627-27.946-27.907
		c-3.988-3.964-9.345-4.156-12.96-0.582c-3.729,3.68-3.549,9.049,0.53,13.167c5.369,5.409,10.766,10.792,16.16,16.174
		c4.622,4.608,9.243,9.19,13.502,13.426c-4.698,4.685-9.229,9.189-14.069,13.992c-0.414-0.503-0.969-1.33-1.666-2.04
		c-4.735-4.776-9.487-9.539-14.275-14.264c-4.324-4.285-9.643-4.635-13.386-0.917c-3.73,3.705-3.408,9.126,0.838,13.387
		c2.646,2.658,5.306,5.33,7.978,7.977c2.866,2.826,5.744,5.628,8.868,8.674c-7.771,6.66-12.998,15.605-23.145,18.55
		c-2.568,0-5.15,0-7.719,0c-6.157-1.678-10.546-5.809-14.883-10.21c-10.934-11.128-21.983-22.164-33.109-33.11
		c-4.415-4.324-8.559-8.712-10.198-14.87c0-2.582,0-5.15,0-7.719c1.769-6.223,6.106-10.598,10.521-15.025
		c70.892-70.811,141.745-141.664,212.585-212.557c4.415-4.421,8.777-8.771,15.013-10.526c2.568,0,5.137,0,7.719,0
		c6.041,1.63,10.404,5.635,14.677,9.976c11.011,11.203,22.124,22.312,33.329,33.326
		C446.231,195.623,450.349,200.023,452.014,206.182z"/>
	<g>
		<path fill-rule="evenodd" clip-rule="evenodd" fill="#1080C4" d="M152.736,147.991c7.5,1.995,14.999,4.034,22.525,5.968
			c9.552,2.455,19.117,4.82,28.682,7.234c11.476,2.9,21.414,8.493,29.728,16.959c2.014,2.038,4.117,3.979,5.964,5.762
			c-18.55,18.565-36.918,36.932-55.454,55.477c-8.842-7.696-17.025-16.561-20.652-28.416c-3.834-12.528-6.79-25.33-10.146-38.01
			c-1.781-6.744-3.601-13.481-5.396-20.224c0-1.584,0-3.165,0-4.75C149.574,147.991,151.149,147.991,152.736,147.991z"/>
		<path fill-rule="evenodd" clip-rule="evenodd" fill="#1080C4" d="M407.48,452.009c-1.885-0.517-3.782-0.981-5.653-1.537
			c-5.693-1.651-10.883-4.322-15.116-8.44c-6.597-6.403-12.96-13.051-19.104-19.285c18.304-18.305,36.711-36.712,55.519-55.52
			c7.009,7.41,14.677,15.091,21.815,23.236c3.743,4.26,5.498,9.758,6.479,15.386c0.103,0.556,0.388,1.085,0.594,1.627
			c0,3.563,0,7.125,0,10.688c-0.194,0.439-0.478,0.853-0.568,1.317c-2.465,13.257-9.81,22.887-21.866,28.759
			c-3.576,1.729-7.604,2.529-11.41,3.77C414.606,452.009,411.044,452.009,407.48,452.009z"/>
		<path fill-rule="evenodd" clip-rule="evenodd" fill="#1080C4" d="M376.514,321.701c10.752,10.765,21.698,21.725,32.464,32.503
			c-18.162,18.148-36.543,36.517-54.68,54.665c-10.713-10.701-21.725-21.711-32.477-32.464
			C339.944,358.281,358.313,339.913,376.514,321.701z"/>
		<path fill-rule="evenodd" clip-rule="evenodd" fill="#1080C4" d="M223.499,278.444c-8.209-8.58-16.807-17.562-25.145-26.274
			c17.787-17.79,36.195-36.194,54.795-54.795c8.273,8.629,16.871,17.597,25.185,26.262
			C260.56,241.405,242.204,259.748,223.499,278.444z"/>
	</g>
</g>
</svg>
