<?xml version="1.0" encoding="utf-8"?>
<!-- Generator: Adobe Illustrator 16.0.0, SVG Export Plug-In . SVG Version: 6.00 Build 0)  -->
<!DOCTYPE svg PUBLIC "-//W3C//DTD SVG 1.1//EN" "http://www.w3.org/Graphics/SVG/1.1/DTD/svg11.dtd">
<svg version="1.1" id="Layer_1" xmlns="http://www.w3.org/2000/svg" xmlns:xlink="http://www.w3.org/1999/xlink" x="0px" y="0px"
	 width="600px" height="600px" viewBox="0 0 600 600" enable-background="new 0 0 600 600" xml:space="preserve">
<g>
	<path fill-rule="evenodd" clip-rule="evenodd" fill="#41BA87" d="M482.761,281.348c-1.666,6.877-3.026,13.848-5.086,20.604
		c-1.942,6.367-7.744,9.877-14.304,9.514c-6.304-0.349-11.659-4.5-12.894-10.866c-0.558-2.874-0.206-6.194,0.656-9.028
		c4.695-15.438,4.008-30.49-2.656-45.186c-10.643-23.467-35.16-37.945-61.479-36.418c-24.798,1.441-47.05,18.677-54.835,42.751
		c-2.13,6.584-5.792,11.25-12.91,12.087c-10.364,1.217-18.151-8.436-15.09-18.631c6.29-20.951,18.651-37.461,36.731-49.727
		c0.885-0.6,1.788-1.171,2.663-1.784c0.179-0.128,0.269-0.383,0.538-0.784c-10.463-12.764-23.528-21.836-39.189-27.156
		c-48.994-16.646-102.813,14.061-113.279,64.635c-0.649,3.134-0.989,6.333-1.439,9.508c-0.982,6.951-5.039,10.988-11.75,12.648
		c-16.748,4.143-27.515,14.495-31.563,31.311c-5.891,24.463,13.371,49.316,38.559,49.375c69.364,0.164,138.729,0.078,208.094-0.039
		c4.345-0.006,8.74-0.879,13.018-1.793c9.028-1.934,16.476,2.18,18.481,10.518c1.929,8.017-2.861,15.441-11.689,17.395
		c-6.111,1.355-12.361,2.084-19.114,3.183c0,3.903,0,8.138,0,12.37c0,2.262,0.294,4.568-0.056,6.774
		c-0.959,6.084,1.472,9.989,7.555,12.011c7.111-5.053,15.33-7.91,24.605-7.676c21.678,0.547,38.834,18.176,38.664,39.895
		c-0.159,20.407-16.073,37.805-35.975,39.326c-21.064,1.612-39.3-12.477-42.646-33.176c-0.6-3.707-0.189-7.568-0.478-11.34
		c-0.093-1.184-0.63-2.712-1.502-3.396c-3.926-3.08-8.028-5.938-12.096-8.831c-4.496-3.201-6.703-7.442-6.638-13.046
		c0.125-10.936,0.035-21.875,0.035-33.076c-16.92,0-33.629,0-50.903,0c0,4.625-0.002,9.209,0,13.791
		c0.004,3.689-1.108,7.92,0.342,10.907c1.354,2.786,5.436,4.242,8.306,6.298c14.538,10.41,20.348,29.252,14.178,45.967
		c-6.226,16.861-22.741,27.316-40.925,25.902c-17.375-1.351-32.127-14.971-35.334-32.625c-3.169-17.443,5.508-34.727,21.601-42.586
		c2.264-1.106,3.084-2.283,3.029-4.773c-0.163-7.579-0.059-15.165-0.059-22.938c-17.141,0-33.859,0-50.905,0
		c0,8.627,0,17.049,0,25.471c0,2.617-0.077,5.238,0.015,7.852c0.189,5.471-2.148,9.625-6.477,12.771
		c-3.94,2.867-7.878,5.743-11.886,8.515c-1.613,1.116-2.186,2.16-1.911,4.347c2.697,21.431-13.209,41.244-35.055,43.91
		c-21.035,2.566-41.499-13.349-43.724-34.473c-1.733-16.457,4.294-29.852,18.412-38.635c14.075-8.754,28.585-8.246,42.754,0.42
		c0.704,0.43,1.379,0.904,2.006,1.319c0.34-0.078,0.576-0.097,0.782-0.186c5.524-2.401,7.207-6.555,6.674-12.486
		c-0.549-6.13-0.121-12.347-0.121-19.032c-5.878,0-11.583,0.383-17.215-0.096c-7.649-0.65-15.602-0.857-22.801-3.184
		c-27.454-8.869-43.58-27.99-48.557-56.457c-0.116-0.672-0.447-1.309-0.68-1.961c0-4.996,0-9.994,0-14.991
		c0.23-0.782,0.547-1.55,0.679-2.35c4.247-25.981,18.486-44.175,42.511-54.868c1.344-0.599,2.813-2.27,3.107-3.676
		c10.618-50.402,54.868-89.004,106.337-91.643c41.458-2.124,74.944,13.871,100.191,46.859c1.454,1.899,2.77,2.238,5.019,2.137
		c9.332-0.414,18.862-1.819,27.986-0.514c36.74,5.256,61.705,25.836,74.688,60.568c2.461,6.585,3.375,13.745,5.004,20.64
		C482.761,269.449,482.761,275.398,482.761,281.348z"/>
	<path fill-rule="evenodd" clip-rule="evenodd" fill="#1080C4" d="M445.728,426.748c0.095-11.17-9.14-20.551-20.261-20.574
		c-11.048-0.028-20.6,9.51-20.512,20.479c0.085,10.653,9.428,20.13,20.09,20.391C435.912,447.309,445.63,437.771,445.728,426.748z"
		/>
	<path fill-rule="evenodd" clip-rule="evenodd" fill="#1080C4" d="M320.387,426.748c0.095-11.17-9.14-20.551-20.261-20.574
		c-11.048-0.028-20.6,9.51-20.512,20.479c0.085,10.653,9.428,20.13,20.09,20.391C310.571,447.309,320.289,437.771,320.387,426.748z"
		/>
	<path fill-rule="evenodd" clip-rule="evenodd" fill="#1080C4" d="M194.095,426.748c0.095-11.17-9.14-20.551-20.261-20.574
		c-11.048-0.028-20.6,9.51-20.512,20.479c0.085,10.653,9.428,20.13,20.09,20.391C184.279,447.309,193.997,437.771,194.095,426.748z"
		/>
</g>
</svg>
