<?xml version="1.0" encoding="utf-8"?>
<!-- Generator: Adobe Illustrator 16.0.0, SVG Export Plug-In . SVG Version: 6.00 Build 0)  -->
<!DOCTYPE svg PUBLIC "-//W3C//DTD SVG 1.1//EN" "http://www.w3.org/Graphics/SVG/1.1/DTD/svg11.dtd">
<svg version="1.1" id="Layer_1" xmlns="http://www.w3.org/2000/svg" xmlns:xlink="http://www.w3.org/1999/xlink" x="0px" y="0px"
	 width="600px" height="600px" viewBox="0 0 600 600" enable-background="new 0 0 600 600" xml:space="preserve">
<g>
	<path fill-rule="evenodd" clip-rule="evenodd" fill="#41BA87" d="M319.295,150.189c1.459,0.486,2.932,0.934,4.371,1.465
		c9.76,3.609,16.086,12.662,16.09,23.191c0.02,53.145,0.01,106.289,0.01,159.434c0,1.018,0,2.035,0,3.053
		c4.205-7.227,10.186-11.256,18.586-11.742c0.443-7.186,3.402-12.975,9.563-16.801c6.066-3.771,12.48-3.813,18.703-1.33
		c1.949-2.768,3.469-5.67,5.666-7.906c7.514-7.65,19.775-7.779,27.664-0.17c9.402,9.068,18.551,18.404,27.75,27.684
		c2.764,2.785,2.785,6.459,0.289,8.826c-2.471,2.346-6.006,2.121-8.834-0.691c-8.848-8.801-17.688-17.611-26.471-26.482
		c-2.656-2.684-5.684-3.787-9.268-2.551c-5.721,1.973-7.137,9.039-2.686,13.602c6.197,6.35,12.529,12.57,18.803,18.846
		c2.412,2.414,4.854,4.799,7.236,7.242c3.041,3.121,3.268,6.4,0.688,9.016c-2.576,2.605-5.928,2.432-9.006-0.631
		c-11.195-11.145-22.361-22.318-33.514-33.508c-2.18-2.189-4.648-3.621-7.811-3.047c-6.475,1.174-9.002,8.533-4.689,13.521
		c0.637,0.736,1.35,1.406,2.039,2.096c10.688,10.688,21.387,21.363,32.061,32.066c2.99,2.996,3.287,6.521,0.863,9.045
		c-2.496,2.604-6.162,2.35-9.248-0.727c-11.188-11.152-22.342-22.338-33.531-33.488c-2.369-2.359-5.135-3.422-8.504-2.318
		c-3.193,1.045-5.023,3.277-5.602,6.488c-0.57,3.17,0.877,5.627,3.064,7.805c10.43,10.393,20.836,20.811,31.232,31.234
		c0.822,0.822,1.66,1.684,2.24,2.676c1.32,2.26,0.801,5.141-1.086,6.967c-1.939,1.877-4.715,2.283-6.984,0.824
		c-1.133-0.727-2.105-1.727-3.068-2.688c-24.764-24.744-49.525-49.488-74.26-74.262c-2.732-2.738-5.678-4.447-9.645-2.967
		c-5.229,1.951-7.037,7.98-3.715,12.465c0.691,0.934,1.553,1.748,2.379,2.574c27.645,27.652,55.301,55.297,82.924,82.973
		c1.145,1.146,2.398,2.455,2.893,3.926c1.561,4.664-2.551,8.518-7.676,7.295c-9.742-2.324-19.439-4.828-29.211-7.014
		c-2.264-0.506-4.875-0.52-7.094,0.09c-3.447,0.949-5.736,4.643-5.525,8.133c0.238,3.945,2.207,6.848,5.977,8.229
		c5.295,1.938,10.67,3.656,15.963,5.594c4.086,1.496,5.57,5.586,3.387,8.932c-1.545,2.367-4.129,3.207-7.205,2.189
		c-4.154-1.375-8.246-2.936-12.428-4.213c-1.023-0.313-2.531-0.217-3.398,0.342c-4.566,2.934-9.453,4.342-14.898,4.336
		c-46.023-0.049-92.051-0.025-138.076-0.029c-13.393,0-22.152-6.756-25.66-19.756c-0.07-0.26-0.303-0.477-0.459-0.713
		c0-34.916,0-69.83,0-104.744c1.383-1.297,2.549-3.131,4.188-3.787c3.869-1.545,7.494,1.641,7.496,6.291
		c0.018,23.307,0.008,46.615,0.008,69.922c0,1.139,0,2.275,0,3.467c55.559,0,110.785,0,166.205,0c0-5.539,0.07-10.889-0.068-16.234
		c-0.023-0.898-0.795-1.934-1.49-2.639c-6.441-6.525-12.936-12.994-19.428-19.465c-0.498-0.496-1.115-0.871-2.133-1.656
		c0,1.629,0,2.68,0,3.732c-0.002,5.949,0.059,11.898-0.025,17.846c-0.068,4.84-2.221,6.873-7.059,6.877
		c-11.799,0.01-23.598,0.016-35.398-0.002c-4.537-0.008-6.838-2.252-6.854-6.82c-0.043-11.896-0.051-23.797,0.006-35.693
		c0.021-4.359,2.383-6.592,6.762-6.605c6.533-0.023,13.068,0,19.602-0.018c0.689-0.002,1.377-0.145,2.285-0.246
		c-2.084-2.309-4.207-4.143-5.65-6.408c-1.486-2.332-2.221-5.133-3.486-7.625c-0.271-0.539-1.395-0.885-2.137-0.904
		c-3.508-0.092-7.02-0.025-10.529-0.047c-4.537-0.025-6.836-2.248-6.852-6.824c-0.043-11.799-0.039-23.6-0.002-35.4
		c0.014-4.713,2.295-6.895,7.066-6.898c11.604-0.012,23.209-0.008,34.814-0.002c5.4,0.002,7.408,1.957,7.445,7.375
		c0.043,6.436-0.039,12.873,0.063,19.309c0.016,1.031,0.43,2.324,1.129,3.033c3.215,3.254,6.637,6.303,9.906,9.506
		c3.867,3.791,7.654,7.664,11.84,11.869c0-42.738,0-84.871,0-126.963c-55.426,0-110.654,0-166.012,0c0,5.676,0,11.131,0,16.586
		c0,18.92-0.021,37.838,0.023,56.756c0.006,2.961-1.055,5.127-3.834,6.248c-2.998,1.209-5.436,0.014-7.881-3.732
		c0-34.914,0-69.828,0-104.744c0.223-0.617,0.49-1.225,0.664-1.857c2.053-7.391,6.428-12.902,13.367-16.23
		c2.059-0.988,4.295-1.605,6.449-2.393C220.207,150.189,269.752,150.189,319.295,150.189z M161.924,187.451
		c55.576,0,110.781,0,166.16,0c0-3.695,0.004-7.191,0-10.688c-0.012-9.809-5.121-14.881-15.006-14.881
		c-45.416-0.002-90.834-0.002-136.248,0c-0.781,0-1.563-0.021-2.34,0.02c-6.742,0.352-12.066,5.275-12.512,11.992
		C161.684,178.34,161.924,182.822,161.924,187.451z M318.686,412.531c-52.438,0-104.537,0-156.809,0
		c0,4.086-0.031,7.973,0.006,11.861c0.076,8.242,5.525,13.691,13.842,13.697c46.209,0.023,92.418,0.018,138.627-0.018
		c1.66-0.002,3.32-0.426,5.406-0.709C314.043,429.07,313.787,420.998,318.686,412.531z M267.66,377.082c8.471,0,16.793,0,25.211,0
		c0-8.563,0-16.971,0-25.406c-8.516,0-16.84,0-25.211,0C267.66,360.225,267.66,368.572,267.66,377.082z M292.859,301.594
		c0-4.859,0-9.57,0-14.285c-8.52,0-16.836,0-25.209,0c0,8.545,0,16.887,0,25.557c2.834,0,5.535,0.041,8.23-0.039
		c0.463-0.016,1.098-0.443,1.338-0.859C280.703,305.889,286.057,302.623,292.859,301.594z M339.932,395.844c0,2.623,0,5.4,0,8.193
		c3.688,0.867,7.223,1.699,10.809,2.543C347.031,402.896,343.475,399.365,339.932,395.844z"/>
	<path fill-rule="evenodd" clip-rule="evenodd" fill="#1080C4" d="M150.184,298.234c1.473-1.32,2.742-3.127,4.465-3.852
		c2.678-1.123,5.732,0.711,6.838,3.473c1.045,2.607,0.029,5.639-2.387,7.127c-2.396,1.475-5.578,1.035-7.432-1.088
		c-0.568-0.652-0.994-1.43-1.484-2.148C150.184,300.576,150.184,299.406,150.184,298.234z"/>
	<path fill-rule="evenodd" clip-rule="evenodd" fill="#1080C4" d="M280.412,260.189c-5.941,0-11.883,0.014-17.824-0.004
		c-4.719-0.016-6.953-2.217-6.967-6.992c-0.033-11.785-0.039-23.57,0.004-35.355c0.018-4.549,2.324-6.77,6.883-6.775
		c11.881-0.016,23.766-0.016,35.646,0.002c4.475,0.004,6.732,2.057,6.766,6.545c0.09,11.98,0.09,23.961,0.002,35.941
		c-0.033,4.631-2.275,6.623-6.977,6.635C292.1,260.199,286.256,260.189,280.412,260.189 M267.65,222.859c0,8.617,0,16.965,0,25.48
		c8.465,0,16.787,0,25.227,0c0-8.543,0-16.951,0-25.48C284.451,222.859,276.207,222.859,267.65,222.859z"/>
	<path fill-rule="evenodd" clip-rule="evenodd" fill="#1080C4" d="M214.805,260.189c-6.039,0-12.078,0.021-18.117-0.008
		c-4.174-0.021-6.584-2.291-6.605-6.451c-0.063-12.078-0.063-24.156,0-36.232c0.021-4.158,2.432-6.424,6.621-6.432
		c12.078-0.023,24.154-0.025,36.232,0.002c4.008,0.008,6.324,2.021,6.361,6.006c0.115,12.369,0.115,24.738-0.002,37.107
		c-0.039,3.977-2.363,5.975-6.373,5.998C226.883,260.215,220.844,260.188,214.805,260.189z M227.285,248.389
		c0-8.658,0-17.072,0-25.531c-8.482,0-16.742,0-25.184,0c0,8.549,0,16.98,0,25.531C210.543,248.389,218.803,248.389,227.285,248.389
		z"/>
	<path fill-rule="evenodd" clip-rule="evenodd" fill="#1080C4" d="M214.805,275.426c6.039,0,12.078-0.025,18.117,0.01
		c4.014,0.021,6.336,2.018,6.373,5.994c0.117,12.367,0.117,24.736,0,37.107c-0.037,3.982-2.355,6.002-6.359,6.01
		c-12.176,0.027-24.352,0.031-36.525-0.004c-3.816-0.01-6.287-2.309-6.313-6.141c-0.084-12.27-0.084-24.543-0.002-36.814
		c0.025-3.838,2.484-6.123,6.301-6.148C202.533,275.395,208.668,275.426,214.805,275.426z M227.357,287.27
		c-8.479,0-16.803,0-25.217,0c0,8.586,0,17.01,0,25.391c8.553,0,16.885,0,25.217,0C227.357,304.096,227.357,295.748,227.357,287.27z
		"/>
	<path fill-rule="evenodd" clip-rule="evenodd" fill="#1080C4" d="M214.797,388.924c-6.039,0-12.078,0.023-18.117-0.008
		c-4.17-0.021-6.578-2.293-6.598-6.459c-0.061-12.076-0.063-24.156,0-36.232c0.021-4.152,2.436-6.416,6.629-6.422
		c12.078-0.023,24.154-0.027,36.232,0.002c4.004,0.008,6.318,2.027,6.355,6.014c0.113,12.367,0.113,24.738-0.006,37.107
		c-0.037,3.973-2.365,5.967-6.381,5.99C226.873,388.951,220.836,388.924,214.797,388.924z M227.344,377.115
		c0-8.676,0-17.023,0-25.465c-8.486,0-16.811,0-25.189,0c0,8.596,0,17.012,0,25.465
		C210.646,377.115,218.904,377.115,227.344,377.115z"/>
	<path fill-rule="evenodd" clip-rule="evenodd" fill="#FFFFFF" d="M239.016,425.141c0.035-3.338,2.615-5.832,5.957-5.756
		c3.123,0.068,5.723,2.662,5.77,5.756c0.047,3.186-2.676,5.904-5.914,5.91C241.506,431.055,238.979,428.484,239.016,425.141z"/>
</g>
</svg>
