<?xml version="1.0" encoding="utf-8"?>
<!-- Generator: Adobe Illustrator 16.0.0, SVG Export Plug-In . SVG Version: 6.00 Build 0)  -->
<!DOCTYPE svg PUBLIC "-//W3C//DTD SVG 1.1//EN" "http://www.w3.org/Graphics/SVG/1.1/DTD/svg11.dtd">
<svg version="1.1" id="Layer_1" xmlns="http://www.w3.org/2000/svg" xmlns:xlink="http://www.w3.org/1999/xlink" x="0px" y="0px"
	 width="600px" height="600px" viewBox="0 0 600 600" enable-background="new 0 0 600 600" xml:space="preserve">
<g>
	<path fill-rule="evenodd" clip-rule="evenodd" fill="#41BA87" d="M291.507,157.735c38.946,0,77.893-0.019,116.839,0.012
		c14.091,0.012,24.528,8.799,26.895,22.602c0.327,1.904,0.271,3.888,0.272,5.835c0.012,54.978,0.023,109.954-0.036,164.93
		c-0.003,2.337,0.716,3.89,2.354,5.583c13.988,14.43,18.649,31.515,12.516,50.686c-6.174,19.289-19.962,30.914-39.859,34.17
		c-17.789,2.909-32.996-3.053-45.087-16.475c-1.68-1.863-3.279-2.57-5.756-2.568c-61.759,0.068-123.518,0.064-185.277,0.047
		c-13.968-0.004-24.439-8.457-27.004-21.764c-0.326-1.697-0.345-3.471-0.345-5.209c-0.016-70.289-0.019-140.576-0.01-210.863
		c0.002-15.65,11.282-26.953,27.043-26.969C213.204,157.708,252.355,157.735,291.507,157.735z M156.848,242.134
		c0,1.391,0,2.414,0,3.436c0,49.63,0.105,99.259-0.086,148.887c-0.039,10.297,7.106,18.134,17.983,18.091
		c59.492-0.233,118.986-0.11,178.479-0.11c1.106,0,2.212,0,3.616,0c-7.621-21.445-4.737-40.732,11.73-56.336
		c16.552-15.685,36.023-17.594,56.848-8.723c0-35.176,0-70.144,0-105.244C335.875,242.134,246.528,242.134,156.848,242.134z
		 M425.376,231.834c0.112-0.63,0.213-0.929,0.213-1.229c0.012-15.515,0.058-31.029-0.011-46.544
		c-0.018-4.002-1.304-7.656-4.013-10.726c-3.672-4.159-8.336-5.519-13.779-5.515c-63.085,0.064-126.17,0.041-189.256,0.041
		c-15.103,0.001-30.207-0.059-45.31,0.025c-9.065,0.051-16.136,6.535-16.278,15.465c-0.254,15.818-0.072,31.643-0.063,47.465
		c0.001,0.284,0.153,0.568,0.281,1.017C246.498,231.834,335.834,231.834,425.376,231.834z M402.911,432.167
		c22.094-0.023,40.024-17.891,40.05-39.91c0.024-21.976-17.933-39.93-39.984-39.979c-22.199-0.049-40.25,17.948-40.188,40.068
		C362.85,414.364,380.809,432.187,402.911,432.167z"/>
	<path fill-rule="evenodd" clip-rule="evenodd" fill="#1080C4" d="M332.334,360.685c-3.103,1.301-5.928,2.485-8.901,3.732
		c0.194,3.707-0.668,7.078-3.512,9.742c-4.727,4.43-19.855,4.522-24.127-0.309c-1.752-1.982-2.227-5.072-3.395-7.605
		c-0.443-0.963-1.118-1.863-1.852-2.634c-0.379-0.399-1.166-0.376-1.688-0.682c-3.17-1.851-5.799-2.271-9.149,0.507
		c-3.64,3.016-9.108,2.04-12.74-1.252c-2.432-2.204-4.76-4.539-6.985-6.955c-4.016-4.361-4.156-10.352-0.213-14.799
		c1.315-1.482,1.66-2.664,0.596-4.279c-0.223-0.339-0.389-0.729-0.514-1.117c-1.051-3.236-2.078-5.698-6.599-5.887
		c-4.739-0.197-8.094-5.156-8.244-10.073c-0.098-3.182-0.098-6.369-0.016-9.552c0.159-6.07,4.313-10.453,10.4-10.761
		c1.853-0.094,2.825-0.672,3.216-2.429c0.154-0.693,0.36-1.427,0.744-2.009c1.831-2.786,1.721-4.981-0.633-7.778
		c-3.152-3.746-2.516-9.323,0.821-13.039c2.329-2.596,4.812-5.072,7.395-7.415c4.222-3.828,10.191-3.884,14.562-0.009
		c1.519,1.346,2.69,1.533,4.277,0.515c0.427-0.272,0.911-0.51,1.401-0.622c3.397-0.775,5.114-2.529,5.491-6.348
		c0.461-4.678,4.9-8.119,9.697-8.342c3.484-0.162,6.986-0.168,10.473-0.023c5.648,0.235,10.096,4.523,10.363,10.211
		c0.096,2.038,0.786,2.973,2.621,3.357c0.396,0.084,0.795,0.235,1.145,0.438c3.18,1.84,5.813,2.313,9.189-0.52
		c3.668-3.074,9.033-2.068,12.713,1.295c2.424,2.217,4.754,4.547,6.983,6.959c4.02,4.346,4.161,10.356,0.217,14.791
		c-1.305,1.467-1.681,2.625-0.604,4.256c0.39,0.592,0.723,1.268,0.887,1.951c0.753,3.129,2.036,4.896,5.9,5.041
		c4.628,0.174,8.364,5.075,8.535,9.867c0.122,3.385,0.113,6.781,0.016,10.166c-0.169,5.788-4.557,10.288-10.38,10.475
		c-1.852,0.06-2.833,0.607-3.205,2.381c-0.123,0.595-0.349,1.191-0.646,1.723c-1.635,2.911-2.073,5.279,0.536,8.363
		c3.213,3.799,2.257,9.396-1.275,13.248c-1.874,2.043-3.879,3.967-5.857,5.91c-5.198,5.109-11.219,5.215-16.659,0.32
		C333.017,361.224,332.692,360.979,332.334,360.685z M281.951,348.931c1.679,0.587,2.65,0.869,3.576,1.258
		c4.047,1.7,8.026,3.576,12.137,5.105c3.563,1.326,4.616,2.463,4.668,6.213c0.091,6.414-0.982,5.717,5.718,5.725
		c6.2,0.007,5.402,0.646,5.452-5.381c0.033-4.184,1.009-5.271,4.903-6.65c3.844-1.361,7.632-2.938,11.307-4.703
		c3.541-1.701,5.03-1.632,7.929,1.205c4.437,4.342,3.235,4.445,7.855-0.158c4.384-4.369,4.29-3.396,0.09-7.68
		c-2.944-3.003-2.986-4.434-1.174-8.186c1.775-3.674,3.324-7.472,4.705-11.312c1.291-3.595,2.361-4.563,6.213-4.603
		c6.292-0.067,5.639,0.845,5.63-5.516c-0.01-6.549,0.727-5.568-5.467-5.646c-3.933-0.051-5.088-1.111-6.413-4.824
		c-1.406-3.937-3.043-7.805-4.831-11.586c-1.605-3.392-1.525-4.891,1.165-7.678c3.896-4.036,3.907-4.049-0.192-8.104
		c-4.264-4.217-3.25-4.145-7.446-0.043c-3.184,3.112-4.465,3.127-8.438,1.146c-3.467-1.726-7.068-3.244-10.734-4.483
		c-4.34-1.466-5.183-2.263-5.198-6.675c-0.021-6.025,0.352-5.172-5.338-5.232c-0.205-0.002-0.41-0.002-0.616,0
		c-6.012,0.074-5.139-0.729-5.222,5.25c-0.057,4.088-1.165,5.297-4.967,6.658c-3.838,1.375-7.599,3.012-11.27,4.788
		c-3.423,1.655-4.982,1.598-7.702-1.011c-4.115-3.949-4.131-3.963-8.096,0.052c-4.322,4.378-4.291,3.284-0.007,7.655
		c2.976,3.035,3.009,4.373,1.154,8.191c-1.693,3.483-3.2,7.082-4.462,10.742c-1.417,4.114-2.504,5.111-6.797,5.153
		c-5.887,0.058-5.158-0.766-5.219,5.278c-0.001,0.104-0.001,0.206,0,0.309c0.063,6.408-0.72,5.582,5.572,5.539
		c3.029-0.021,5.033,0.979,6.152,3.957c1.648,4.391,3.463,8.729,5.395,13.003c1.063,2.356,0.834,4.31-0.785,6.258
		c-1.391,1.673-3.854,3.563-3.687,5.128c0.188,1.78,2.885,3.215,4.282,4.965c1.774,2.223,3.18,2.291,5.115,0.074
		C278.378,351.43,280.376,350.208,281.951,348.931z"/>
	<path fill-rule="evenodd" clip-rule="evenodd" fill="#1080C4" d="M211.277,256.831c10.567,0,21.137-0.01,31.704,0.004
		c4.18,0.004,6.377,1.762,6.32,4.988c-0.057,3.096-2.263,4.869-6.175,4.871c-21.444,0.01-42.888,0.012-64.332-0.002
		c-3.894-0.002-5.987-1.813-5.95-5.029c0.037-3.103,2.047-4.816,5.805-4.824C189.525,256.817,200.401,256.831,211.277,256.831z"/>
	<path fill-rule="evenodd" clip-rule="evenodd" fill="#1080C4" d="M203.718,338.194c-8.523-0.002-17.049,0.002-25.572-0.004
		c-2.537-0.002-4.421-1.123-5.127-3.588c-0.611-2.135-0.098-4.17,1.889-5.406c0.9-0.562,2.106-0.879,3.175-0.882
		c17.254-0.054,34.508-0.066,51.761-0.018c3.407,0.01,5.379,2.025,5.311,5.032c-0.068,2.953-2.126,4.832-5.555,4.852
		C220.972,338.226,212.345,338.196,203.718,338.194z"/>
	<path fill-rule="evenodd" clip-rule="evenodd" fill="#1080C4" d="M200.958,314.313c-7.382-0.001-14.763,0.029-22.144-0.013
		c-3.988-0.023-6.007-1.775-5.969-4.994c0.038-3.209,2.103-4.918,6.073-4.922c14.659-0.015,29.318-0.013,43.979-0.002
		c4.043,0.002,6.356,1.865,6.333,5.031c-0.025,3.15-2.253,4.879-6.438,4.893C215.515,314.331,208.235,314.313,200.958,314.313z"/>
	<path fill-rule="evenodd" clip-rule="evenodd" fill="#1080C4" d="M234.501,385.742c-6.874,0.001-13.747,0.024-20.62-0.01
		c-3.529-0.017-5.805-2.067-5.71-5.021c0.09-2.808,2.356-4.813,5.663-4.821c13.953-0.029,27.905-0.035,41.858,0.004
		c3.406,0.008,5.428,1.928,5.446,4.92c0.018,3.021-1.972,4.896-5.401,4.915C248.659,385.771,241.579,385.741,234.501,385.742z"/>
	<path fill-rule="evenodd" clip-rule="evenodd" fill="#1080C4" d="M187.616,362.077c-3.076,0.002-6.155,0.086-9.228-0.021
		c-3.604-0.124-5.63-2.106-5.542-5.204c0.082-2.924,2.104-4.812,5.576-4.861c6.254-0.086,12.51-0.099,18.764,0.013
		c3.408,0.061,5.416,2.089,5.407,5.037c-0.009,2.941-2.006,4.878-5.442,5.009C193.978,362.169,190.795,362.075,187.616,362.077z"/>
	<path fill-rule="evenodd" clip-rule="evenodd" fill="#1080C4" d="M186.313,290.606c-2.67,0-5.344,0.077-8.011-0.021
		c-3.422-0.123-5.44-2.039-5.461-4.993c-0.022-2.964,1.939-4.97,5.39-5.052c5.441-0.131,10.889-0.136,16.329,0.006
		c3.329,0.088,5.468,2.308,5.395,5.129c-0.074,2.809-2.286,4.805-5.631,4.916C191.655,290.679,188.982,290.608,186.313,290.606z"/>
	<path fill-rule="evenodd" clip-rule="evenodd" fill="#1080C4" d="M226.412,290.608c-2.363-0.002-4.73,0.077-7.089-0.021
		c-3.298-0.137-5.551-2.242-5.554-5.027c-0.003-2.787,2.199-4.938,5.544-5.025c4.825-0.127,9.66-0.127,14.486-0.002
		c3.327,0.086,5.555,2.25,5.556,5.02c0.001,2.87-2.355,4.945-5.854,5.045C231.141,290.665,228.774,290.61,226.412,290.608z"/>
	<path fill-rule="evenodd" clip-rule="evenodd" fill="#1080C4" d="M227.767,362.07c-1.943,0-3.893,0.095-5.828-0.021
		c-3.385-0.201-5.341-2.158-5.295-5.121c0.044-2.809,1.982-4.805,5.18-4.916c4.086-0.141,8.184-0.141,12.27,0.005
		c3.077,0.11,5.222,2.292,5.26,4.948c0.039,2.665-2.061,4.742-5.144,5.086c-0.203,0.021-0.409,0.027-0.612,0.028
		c-1.943,0.001-3.887,0.001-5.83,0.001V362.07z"/>
	<path fill-rule="evenodd" clip-rule="evenodd" fill="#1080C4" d="M183.472,385.722c-2.049,0-4.107,0.123-6.145-0.03
		c-2.73-0.206-4.27-1.814-4.464-4.556c-0.19-2.68,1.515-5.017,4.165-5.15c4.293-0.216,8.609-0.197,12.904-0.021
		c2.564,0.105,4.532,2.59,4.438,5.035c-0.096,2.553-2.056,4.502-4.751,4.723c-0.203,0.017-0.409,0.018-0.614,0.018
		c-1.844,0.002-3.688,0.002-5.533,0.002C183.472,385.735,183.472,385.728,183.472,385.722z"/>
	<path fill-rule="evenodd" clip-rule="evenodd" fill="#1080C4" d="M345.226,216.093c-14.388-0.001-28.775,0.067-43.16-0.031
		c-6.744-0.045-11.899-3.153-14.82-9.257c-2.742-5.731-2.152-11.421,1.616-16.582c3.253-4.455,7.866-6.553,13.302-6.563
		c28.773-0.05,57.547-0.097,86.32,0.02c9.515,0.036,16.506,7.271,16.391,16.397c-0.114,9.113-7.256,15.975-16.797,16.004
		C373.792,216.128,359.509,216.093,345.226,216.093z M345.376,193.759c-7.389,0-14.776-0.004-22.165,0
		c-7.183,0.006-14.368-0.053-21.549,0.062c-3.469,0.054-5.88,2.487-6.074,5.717c-0.19,3.167,2.038,5.839,5.413,6.394
		c1.005,0.164,2.042,0.177,3.064,0.177c27.501,0.01,55.003,0.013,82.505-0.008c1.324-0.001,2.706-0.03,3.958-0.397
		c2.74-0.804,4.258-2.757,4.367-5.645c0.11-2.918-1.384-4.937-4.001-5.934c-1.192-0.455-2.63-0.35-3.958-0.352
		C373.084,193.751,359.229,193.759,345.376,193.759z"/>
	<path fill-rule="evenodd" clip-rule="evenodd" fill="#1080C4" d="M209.843,199.751c0.051,8.938-7.304,16.359-16.188,16.334
		c-8.753-0.023-16.043-7.278-16.161-16.084c-0.118-8.816,7.381-16.375,16.224-16.352
		C202.464,183.673,209.794,190.993,209.843,199.751z M187.587,199.825c-0.02,3.514,2.735,6.27,6.202,6.2
		c3.31-0.065,6.057-2.812,6.099-6.097c0.043-3.43-2.777-6.175-6.302-6.132C190.126,193.84,187.605,196.372,187.587,199.825z"/>
	<path fill-rule="evenodd" clip-rule="evenodd" fill="#1080C4" d="M221.022,199.69c0.065-8.747,7.457-16.077,16.178-16.041
		c8.882,0.035,16.313,7.588,16.146,16.408c-0.168,8.84-7.449,16.039-16.206,16.027C228.242,216.072,220.956,208.662,221.022,199.69z
		 M243.273,199.851c-0.006-3.443-2.531-6.001-5.979-6.054c-3.53-0.054-6.357,2.671-6.334,6.105c0.021,3.278,2.765,6.041,6.078,6.122
		C240.502,206.108,243.281,203.358,243.273,199.851z"/>
	<path fill-rule="evenodd" clip-rule="evenodd" fill="#1080C4" d="M393.789,398.278c8.692-8.057,16.55-15.297,24.348-22.6
		c1.862-1.746,3.743-2.904,6.315-1.67c3.47,1.666,3.864,5.5,0.803,8.674c-6.704,6.946-13.458,13.843-20.196,20.758
		c-1.864,1.912-3.69,3.863-5.624,5.703c-2.575,2.453-4.988,2.523-7.596,0.076c-3.968-3.725-7.859-7.533-11.694-11.396
		c-2.323-2.34-2.392-4.986-0.415-7.121c1.992-2.15,5.008-2.263,7.373,0.107C389.776,393.487,392.168,396.447,393.789,398.278z"/>
	<path fill-rule="evenodd" clip-rule="evenodd" fill="#1080C4" d="M307.974,340.876c-14.812,0.046-26.891-11.976-26.87-26.742
		c0.022-14.738,12.221-26.892,26.897-26.797c14.691,0.095,26.539,11.939,26.677,26.669
		C334.814,328.783,322.845,340.829,307.974,340.876z M324.655,314.14c-0.005-9.424-7.373-16.738-16.832-16.709
		c-9.297,0.029-16.609,7.31-16.65,16.577c-0.043,9.448,7.289,16.878,16.673,16.897C317.262,330.925,324.659,323.546,324.655,314.14z
		"/>
</g>
</svg>
