<?xml version="1.0" encoding="utf-8"?>
<!-- Generator: Adobe Illustrator 16.0.0, SVG Export Plug-In . SVG Version: 6.00 Build 0)  -->
<!DOCTYPE svg PUBLIC "-//W3C//DTD SVG 1.1//EN" "http://www.w3.org/Graphics/SVG/1.1/DTD/svg11.dtd">
<svg version="1.1" id="Layer_1" xmlns="http://www.w3.org/2000/svg" xmlns:xlink="http://www.w3.org/1999/xlink" x="0px" y="0px"
	 width="600px" height="600px" viewBox="0 0 600 600" enable-background="new 0 0 600 600" xml:space="preserve">
<g>
	<path fill-rule="evenodd" clip-rule="evenodd" fill="#41BA87" d="M120.009,359.761c0-21.094,0-42.188,0-63.275
		c3.311-8.142,9.398-11.401,18.038-10.59c3.312,0.313,6.675,0.053,9.909,0.053c0.118-0.8,0.17-1.034,0.17-1.27
		c0.013-23.308-0.026-46.62,0.039-69.927c0.064-22.252,19.019-41.245,41.271-41.271c63.839-0.053,127.678-0.027,191.518,0
		c1.388,0,2.826,0.065,4.162,0.418c7.108,1.898,11.414,8.483,10.406,15.768c-0.916,6.748-6.846,11.872-13.979,11.879
		c-38.878,0.025-77.768,0.013-116.657,0.013c-1.361,0-2.708,0-3.992,0c0,9.661,0,18.837,0,28.149c1.663,0,3.063,0,4.464,0
		c29.636,0,59.271-0.046,88.905,0.02c22.294,0.053,41.193,18.967,41.326,41.222c0.052,9.254,0.012,18.507,0.024,27.763
		c0,0.837,0.171,1.682,0.302,2.866c12.723-8.482,25.094-16.702,37.451-24.943c7.983-5.32,15.916-10.713,23.939-15.976
		c8.602-5.642,17.906-2.795,21.939,6.598c0.17,0.399,0.497,0.733,0.746,1.106c0,39.838,0,79.684,0,119.516
		c-6.531,11.97-13.744,13.666-25.315,5.949c-18.588-12.396-37.188-24.799-55.788-37.181c-0.93-0.616-1.912-1.153-3.287-1.964
		c0,10.301,0.025,20.106,0,29.909c-0.065,23.144-18.836,41.913-42.043,41.934c-54.455,0.033-108.92,0.033-163.389,0
		c-23.195-0.021-41.951-18.817-42.016-41.959c-0.015-4.646,0-9.301,0-14.274c-4.19,0-8.026,0.066-11.861-0.026
		c-2.094-0.046-4.228-0.11-6.243-0.595C124.773,368.399,122.116,364.329,120.009,359.761z M176.386,285.948
		c14.046,0,27.738-0.013,41.43,0.013c8.836,0.014,14.661,5.864,14.674,14.759c0.014,18.267,0.014,36.54,0,54.813
		c-0.013,8.883-5.852,14.739-14.687,14.754c-12.54,0.026-25.067,0.006-37.607,0.006c-1.243,0-2.474,0-3.952,0
		c0,4.182,0,7.912,0,11.644c0.012,10.93,5.523,16.506,16.349,16.506c52.831,0,105.646,0,158.479,0
		c10.851,0,16.427-5.576,16.44-16.415c0-35.957,0-71.915-0.014-107.873c0-10.831-5.563-16.349-16.48-16.349
		c-56.927,0-113.854,0-170.77,0c-1.243,0-2.498,0-3.861,0C176.386,267.32,176.386,276.412,176.386,285.948z M204.241,314.234
		c-18.876,0-37.332,0-55.894,0c0,9.366,0,18.542,0,27.711c18.771,0,37.306,0,55.894,0
		C204.241,332.601,204.241,323.515,204.241,314.234z M232.358,201.609c-14.53,0-28.798-0.209-43.065,0.112
		c-5.838,0.138-10.694,3.54-11.95,9.234c-1.349,6.009-1.021,12.383-1.428,18.562c19.359,0,37.816,0,56.443,0
		C232.358,220.251,232.358,211.153,232.358,201.609z M407.041,328.124c15.094,10.059,29.714,19.791,44.636,29.746
		c0-20.054,0-39.505,0-59.501C436.729,308.331,422.173,318.031,407.041,328.124z"/>
	<path fill-rule="evenodd" clip-rule="evenodd" fill="#1080C4" d="M325.323,285.954c7.839,0.007,14.005,6.133,14.031,13.96
		c0.025,8.005-6.205,14.19-14.229,14.132c-7.802-0.06-13.888-6.278-13.863-14.145C311.29,292.067,317.454,285.948,325.323,285.954z"
		/>
</g>
</svg>
